<mxfile host="app.diagrams.net" modified="2022-01-14T08:33:37.609Z" agent="5.0 (Windows NT 10.0; Win64; x64) AppleWebKit/537.36 (KHTML, like Gecko) Chrome/97.0.4692.71 Safari/537.36" etag="TRYeTCm4lKGxKaFi_Q1H" version="16.2.6" type="github" pages="3">
  <diagram id="cIqDtBg3s0ZqzKYAe2C_" name="Page-1">
    <mxGraphModel dx="2357" dy="450" grid="1" gridSize="10" guides="1" tooltips="1" connect="1" arrows="1" fold="1" page="1" pageScale="1" pageWidth="827" pageHeight="1169" math="0" shadow="0">
      <root>
        <mxCell id="0" />
        <mxCell id="1" parent="0" />
        <mxCell id="gjdqqjQ03ss4Lc15f2Y9-40" value="" style="html=1;whiteSpace=wrap;shape=isoCube2;backgroundOutline=1;isoAngle=15;fontFamily=Times New Roman;fontSize=13;" vertex="1" parent="1">
          <mxGeometry x="-1640" y="10" width="20" height="20" as="geometry" />
        </mxCell>
        <mxCell id="gjdqqjQ03ss4Lc15f2Y9-41" value="file" style="text;html=1;strokeColor=none;fillColor=none;align=center;verticalAlign=middle;whiteSpace=wrap;rounded=0;fontFamily=Noto Sans;fontSize=13;fontSource=https%3A%2F%2Ffonts.googleapis.com%2Fcss%3Ffamily%3DNoto%2BSans;" vertex="1" parent="1">
          <mxGeometry x="-1610" y="10" width="60" height="30" as="geometry" />
        </mxCell>
        <mxCell id="gjdqqjQ03ss4Lc15f2Y9-45" value="git" style="text;html=1;strokeColor=none;fillColor=none;align=center;verticalAlign=middle;whiteSpace=wrap;rounded=0;fontFamily=Noto Sans;fontSize=13;fontSource=https%3A%2F%2Ffonts.googleapis.com%2Fcss%3Ffamily%3DNoto%2BSans;" vertex="1" parent="1">
          <mxGeometry x="-1570" y="10" width="60" height="30" as="geometry" />
        </mxCell>
        <mxCell id="gjdqqjQ03ss4Lc15f2Y9-46" value="all" style="text;html=1;strokeColor=none;fillColor=none;align=center;verticalAlign=middle;whiteSpace=wrap;rounded=0;fontFamily=Noto Sans;fontSize=13;fontSource=https%3A%2F%2Ffonts.googleapis.com%2Fcss%3Ffamily%3DNoto%2BSans;" vertex="1" parent="1">
          <mxGeometry x="-1530" y="10" width="60" height="30" as="geometry" />
        </mxCell>
        <mxCell id="gjdqqjQ03ss4Lc15f2Y9-48" value="passon" style="text;html=1;strokeColor=none;fillColor=none;align=center;verticalAlign=middle;whiteSpace=wrap;rounded=0;fontFamily=Noto Sans;fontSource=https%3A%2F%2Ffonts.googleapis.com%2Fcss%3Ffamily%3DNoto%2BSans;fontSize=13;" vertex="1" parent="1">
          <mxGeometry x="-1490" y="10" width="60" height="30" as="geometry" />
        </mxCell>
        <mxCell id="Ik4Hud5bE3FiM8ODFOGU-1" value="" style="rounded=0;whiteSpace=wrap;html=1;fontFamily=Noto Sans;fontSource=https%3A%2F%2Ffonts.googleapis.com%2Fcss%3Ffamily%3DNoto%2BSans;fontSize=13;" vertex="1" parent="1">
          <mxGeometry x="-190" y="100" width="3410" height="710" as="geometry" />
        </mxCell>
        <mxCell id="Ik4Hud5bE3FiM8ODFOGU-3" value="X" style="labelPosition=center;verticalLabelPosition=middle;align=center;html=1;shape=mxgraph.basic.shaded_button;dx=10;fillColor=#E6E6E6;strokeColor=none;fontFamily=Noto Sans;fontSource=https%3A%2F%2Ffonts.googleapis.com%2Fcss%3Ffamily%3DNoto%2BSans;fontSize=13;gradientColor=none;gradientDirection=south;" vertex="1" parent="1">
          <mxGeometry x="3160" y="110" width="60" height="40" as="geometry" />
        </mxCell>
        <mxCell id="Ik4Hud5bE3FiM8ODFOGU-4" value="☐" style="labelPosition=center;verticalLabelPosition=middle;align=center;html=1;shape=mxgraph.basic.shaded_button;dx=10;fillColor=#E6E6E6;strokeColor=none;fontFamily=Noto Sans;fontSource=https%3A%2F%2Ffonts.googleapis.com%2Fcss%3Ffamily%3DNoto%2BSans;fontSize=13;gradientColor=none;gradientDirection=south;" vertex="1" parent="1">
          <mxGeometry x="3095" y="110" width="65" height="40" as="geometry" />
        </mxCell>
        <mxCell id="Ik4Hud5bE3FiM8ODFOGU-5" value="─" style="labelPosition=center;verticalLabelPosition=middle;align=center;html=1;shape=mxgraph.basic.shaded_button;dx=10;fillColor=#E6E6E6;strokeColor=none;fontFamily=Noto Sans;fontSource=https%3A%2F%2Ffonts.googleapis.com%2Fcss%3Ffamily%3DNoto%2BSans;fontSize=13;gradientColor=none;gradientDirection=south;" vertex="1" parent="1">
          <mxGeometry x="3040" y="110" width="60" height="40" as="geometry" />
        </mxCell>
        <mxCell id="Ik4Hud5bE3FiM8ODFOGU-16" value="" style="shape=ext;double=1;whiteSpace=wrap;html=1;aspect=fixed;fontFamily=Noto Sans;fontSource=https%3A%2F%2Ffonts.googleapis.com%2Fcss%3Ffamily%3DNoto%2BSans;fontSize=13;gradientColor=none;gradientDirection=south;direction=south;" vertex="1" parent="1">
          <mxGeometry x="-170" y="120" width="80" height="80" as="geometry" />
        </mxCell>
        <mxCell id="Cr5JN6tqvWCPMzFkXz8V-1" value="" style="sketch=0;aspect=fixed;html=1;points=[];align=center;image;fontSize=12;image=img/lib/mscae/SQL_Database_generic.svg;fontFamily=Noto Sans;fontSource=https%3A%2F%2Ffonts.googleapis.com%2Fcss%3Ffamily%3DNoto%2BSans;fontColor=default;strokeColor=default;fillColor=default;gradientColor=none;gradientDirection=south;" vertex="1" parent="1">
          <mxGeometry x="-149" y="135" width="38" height="50" as="geometry" />
        </mxCell>
        <mxCell id="Cr5JN6tqvWCPMzFkXz8V-2" style="edgeStyle=none;rounded=0;orthogonalLoop=1;jettySize=auto;html=0;exitX=0.5;exitY=0;exitDx=0;exitDy=0;fontFamily=Noto Sans;fontSource=https%3A%2F%2Ffonts.googleapis.com%2Fcss%3Ffamily%3DNoto%2BSans;fontSize=13;fontColor=default;" edge="1" parent="1" source="Ik4Hud5bE3FiM8ODFOGU-1" target="Ik4Hud5bE3FiM8ODFOGU-1">
          <mxGeometry relative="1" as="geometry">
            <Array as="points" />
          </mxGeometry>
        </mxCell>
        <mxCell id="Cr5JN6tqvWCPMzFkXz8V-3" style="edgeStyle=none;rounded=0;orthogonalLoop=1;jettySize=auto;html=0;exitX=0.5;exitY=0;exitDx=0;exitDy=0;fontFamily=Noto Sans;fontSource=https%3A%2F%2Ffonts.googleapis.com%2Fcss%3Ffamily%3DNoto%2BSans;fontSize=13;fontColor=default;" edge="1" parent="1" source="Ik4Hud5bE3FiM8ODFOGU-1" target="Ik4Hud5bE3FiM8ODFOGU-1">
          <mxGeometry relative="1" as="geometry" />
        </mxCell>
        <mxCell id="sjJf1BGLtcnf1XshoiC_-1" value="" style="shape=image;imageAspect=0;aspect=fixed;verticalLabelPosition=bottom;verticalAlign=top;fontFamily=Verdana;fontSource=https%3A%2F%2Ffonts.googleapis.com%2Fcss%3Ffamily%3DArchitects%2BDaughter;fontSize=13;fontColor=default;strokeColor=default;fillColor=#FFFFFF;gradientColor=#FFFFFF;gradientDirection=south;html=1;image=data:image/gif,R0lGODlh3AEYATEAACH/C05FVFNDQVBFMi4wAwEAAAAh+QQIBgAAACwAAAAA3AEYAYMBM2j/////AAAAAAD/y5v/mP//mQH+Mp7//wCZmJo0/wEBmP//mJ1oMv8AAAAAAAAE/hDISau9OOvNu/9gKI5kaZ5oqq5s675wLM90bd94ru987//AoHBILBqPyKRyyWw6n9CodEqtWq/YrHbL7Xq/4LB4TC6bz+i0es1uu9/wuHxOr9vv+Lx+z++nAoABfoOEhSqBgoaKi4wZiI2QkYqPkpWWcZQamZecnV6bGKCeo6RTohanpaqrSKkUrqyxsrO0tba3uLm6u7y9vr9zsJqBwMXAwo7Exsu7yKHKzNG2zhfU0tfY2drb3N3e3+Dh4uNhyNbk6Hbm0OntfuuA7vJ98Inz94Pn+Pt1+vz/cPwBHLhGIMGDCBMqXMiwocOHECNKnEixosWLGDPqMqiRHrtV/hw77glpiKRIPCYJpTzZ76OqlSyDuSwFMyammaRq2nyjcyTOnSV/Ah1KtKjRo0iTKiWDaJPTpvGWnoEaVcJTqCqpvmJH1Z5UplonXG2aFatYrmG/gjVrFS1bj2/H9lR7pOvWqgDs0t3Lt6/fv4ADs5wruAphlEILpzl8h7FiKI5b4n3cJjIdy5SXYJazOXOrxJw6ezYimifo0eVOEyyNWgjryqpbd3nNhrbsHrbV5L6tY/dar755vxg7irjwT269XjJ+nAvz0Mmbz47+MrZ0w9YjBb8eY3sZ79xdgB8zPvyK8ubTq1/Pvr37VQLiy59Pv779+TDu699PPz////dx/jDAgAQWaOCBCCao4IIMDkgZgBD290KEFArgX4UACtjghhx2uOGDGGY4YYj/XUiifhp6qOKKHYJ4IoojvhhgjDLWlyKLOOZoYEc19ujjj0AGKSR/BRJg5JFIJqnkkkw26eSTRhZ40ZBUVmnllVcWCeWWXHa5pZQWYSnmmGSWuZ+WXqapZpdgVmTmm3DGKSSaa9ZpZ5JtUiTnnnz2eSaBUBYg6KCEFmrooYgmeiiUeT7k56OQ7kknk4pWaumlhjJK4ESRduqpmJMuiemopC76ZKMOfarqqkCGqmSpsJaqqYMSUWnArbjmquuuvOZqa6/ABuvrkMIWC+x8rhIQa6EH/jR7AKLOPhsrk6g29Kux2OJ6bbbYbsttscgCKuqyg0YLrbPLUrtprcR+22277oILb7zBhjsgpeQKau6h+8KqLq0ReUsvrwIPrGvBBmsrX7L56osuvw/7u2S1DCVs8cUYZ6zxxtjSeW6zDYecKJIUL8TxySinrPLKBngMMcgix0woyetGxPLNOOes864uG9qvzDHTDDBEOxdt9NEY98xsxECLLPQAEyEt9dRUB6t004cm+LG0mR6ZZ4IHVS322FJfjXWhWr/MdaFPUwA2QWTHLffNZp89aNo+Mz2z1zUD8PZAcwcuuMZ1210A3kvD3HWUff8NEMoIRC755JRXbvnk/pBfrvnmmJ/M+eea51o40AUmYPrpphdI6tOlo356yelkDvrskstO++y23/656OIaafjdBLr+OoGr832g8Kn3fU/uum/OfPOXPw995bzfe+TvgrYuvOqjsh488rCjI/30nXNMPufjn49A9QMgif3h329PfPfGG4h8AuGTo/7+/Pfv///Q89DlRjeqnxFKe/fD3/wU9bQEDm9o9wCgBCdIwQrqToCWIyCmDAi8ATkweQOyVAM/mL9xWPCEKEyhBDFYOQ1eioPZi18CucfA+n1QgRCchwp3yMMezo6FlHOhpWAIPw+ScIEjs+ERcygPHzrxiU5EIOoSNDkhNkyKS9zQ/g2nqDwdQvGLYKwgFkFooCr2TlnYG+MMO7TFB0KNH2GMoxz5p0YqSs6K+VLj/TzURjL+Y46ADOTt6oggM1rPd2mU4Q352McSioOCCoikJCdJyUpacpKQvKQmN4nJCXJSAQnaI4PcVykiWkqPfUylKJnojkx+8pWUdCUsZynLS4YSfKO8Xin1NipUqvKXbvyjJ2dJzFoSk5PGrOQt5bcgUirKlJXyJTB/6chwJPOYl7wmNiupTUku03UNcmaioKkoaU4zldUExzbXyc52uvOd8GznN7l4IHGGLFrmPKc+07mNePrznwANqEApOU834vGFzsqnPqfJT20M9KEQjahE/pWJoFUayJ4Nw6ciF8pRer5RHhMNqUhHKs+K4rKeuoyZRo3Y0ZYGcx4kjalMZ7rJgpJRnOS8lDQRoVDX8XSjfoQpTYdKVJLaFIftS2kBcnpKoPo0ED1F3U9ZCs4uoqOoWM3qQ4+qNKZG06lShSpYPzjVAVj0HlpNq1rfydUzEsqr5Ryr6co6Tbqe9KPuGOgC9srXvvr1r4Dtq14DS9jCClaghk3sAjyE0ZhJ86ge9SghWTmOwSr2sny1LGYvq9nN9pWxSiWdXJH6WBm2lbLi6KxnC6va1Qa2tZ4FLSKxVtrjZVGyTm1oNmDrWr/ytreZRSxw9ypbNNJ2tJB1I26p/urRewz3udCNrnSnS93YIqixCFUc2mTIgO56t7suTeB3v6tbbFT3vOhNr3rXy9cEYXeIvIwhVcfr3fDej77dLe812Mvf/vr3v4B1b2gLGN8imvV0+GWAfZGXYP1KA8AQjrCEpSvg2ZaKiAhM8IKF12CrkmPCIA6xiC/LsHIVuKnzxW9k72pR1HUYteEYsYxnLOMSO0y7pMqwipXL4h6b7sV4bQeNh0xkANt4qSf+aorpu2JmHtjJLsavg6NR5CpbGb1Hhut2lzzeJleVuTz+sZQ9PI70NuDMaE6zmtfM5jSbuc1wjrOb0SvnOsP5s2fEl2ORqyP73fUfb7azoNEc/uhBC7rQhq4zng/ZJNGC2cl9fvKXgzwPRCc6zpa+dJszrek1LzqpTnK0pC0a6bPyg9OdnvN5Uy1nVLO6AZ8OlMxqG+lRv3Qfr861rnfN60EjotedDued0hTVhU6ZG8BOtrKXfelfM1vQwh42m0Yb3mNv49nYzja2na1tOEdb2l+itkutrY1um/vcr+Y2utP8bXCfStwtJXc21k3vetsb2nyutb73LW9k3/vfAL83rflN8D4vJOAIT3i3B17whq/o4AqPuMR7zXCHW/xDClk2DDT+Ao6rYLI7mgDISTBykeeWzATxeAtUzgKWnwDkXzs5jDNQcgnUnCEuV0HOU7Bz/pLLPOQ2/7nPH41UtwndIT0/QdJNsPQQwLxxRxfBzW/+niQYhDAewkCDWLD1Cziu6ky4enY+kHWvM4jrZzf7gcD+BLFPZgVlt0DXP552uSOI7U5wu3Lg3iK1KwjtC9L63fH+D/QQfhmGP3wxEq/4XzC+8b14POSbMfbJI0TylscF5jM/nMpPJy5p4Xxq3q6b0OtF9KPfe+lB/xbUI4f0izF96F1/ec/T/h6bvz1IbK97d+S+9znhPfDR8fvhd6L4xl+O8JPP/OY7//nQj770p0/96lv/+tjPvva3z/3ue//74A+/+MdP/vKb//zoT7/618/+9rv//fCPv/znT//6ttv//vjPv/73z/93LJ/8yIcdsEd/AUgFBYh3BygFCQh2Cxh21CF/z6F8eNGA4RGBlmCB7oeBkqCB7MeBF/h/40eBeQeC4ieCTWCC7IGCmkGC4aeC/feCMBiDMjiDNFiDNniDOJiDOriDPNiDPviDQBiEQjiEmeGCRGgDRniENJCESigDTNiEUBiFUjiFVFiFVniFWJiFWriFXNiFXviFYBiGYjiGZFiGZniGaJiGariGbNiGXxABACH5BAgGAAAALAAAAADcARgBgwEzaP////8AAAAAAP/Lm/+Y//+ZAf4ynv//AJmYmjT/AQGY//+YnWgy/wAAAAAAAAT+EMhJq7046827/2AojmRpnmiqrmzrvnAsz3Rt33iu73zv/8CgcEgsGo/IpHLJbDqf0Kh0Sq1ar9isdsvter/gsHhMLpvP6LR6zW673/C4fE6v2+/4vH7Plwf+AX2Cg4QugIGFiYqLHYeMj5CPjpGUlZaXmJmam5ydnp+goaKjpKWmp6ipqqusra6vsLFikyK0sreptiC6uL2jvB7AvsOdwhzGxMnKy8zNzs/Q0dLT1NXW19jZ2tvc3d7f4DLI4eRx4+XobOfp7Gfr7fDx8vP09fb3+Pn6+/z9/v8AAwoM8m6goIKUEBrcoxBSw4V4HjKSCLEORUsXK84CdIyjqIz+GsGcA0mIZMguIz2GMnlyS8o/LWPKnEmzps2bOKGwzIlE4k4+P3kW8akSVFChQ4jC/FgUKReliJxKnUq1qtWrWLMdzQrkZVSjTblm8forrNgrZJkuPaslbaatNOAKlSvObBK6MfDi1PuCrwq/LQDTFLyCsAnDKRC3VHyCsRrHbHlARjM5co7KZjBbtqGZTOfNMz63PVSUtF3QT0yvBaD666LWFGCjriJbQu2JqmPnnk3l9u3Xu20H5x3F9/BLoomzSC7ytPKxzt9Gf26F+Rfr1A9PR749uxTsKLt71yk+YfnxTcA/PY9+ifoVAuLLn0+/vv35MO7r308/P///94H+MMCABBZo4IEIJqjgggwOSBWAEPb3QoQUCuBfhQAK2OCGHHa44YMYZjhhiP9dSKJ+Gnqo4oodgngiiiO+GGCMMtaXIos45mjgPzX26OOPQAYpJH8FEmDkkUgmqeSSTDbp5JNGFrjPkFRWaeWVVxYJ5ZZcdrmllPpgKeaYZJa5n5Zepqlml2DmY+abcMYpJJpr1mlnkm3iI+eefPZ5JoFQFiDooIQWauihiCZ6KJR5zuPno5DuSSeTilZq6aWGMkrgPZF26qmYky6J6aikLvpko/J8quqqQIaqZKmwlqqpg/YAacCtuOaq66685kplr8AGq+uvwhbb632uEhBroQf+NHsAos4+GyuTqMZjq7HY+jpkttwaQGy3xiILqKjLDhottM4uS+2mtf4ILrbfvhtsvPIea1+y5Zqb7qHnTrtktfBcWy+w9A487LYG21sfvvkW0K+hD8v6L7v1JGzxxRhnrPHGvNKJbrMNh5wokgC3w/HJKKesMsce87uvyDAPSjLF9Kxs880457xryxC/HDPMM9Nasc5EF220xTwz6/PPIQc9wD1HRy311MEmzXSlCRIaMaFOY5DgN1SHLXbUVl+daNb6gmxqlDRT8LU3Y8ctt81lm30o2oJuLfORAL/dzdyAB55x3XYXirfDS+/NttAV+M1NxghELvnklFdu+eT+J1+u+eaUZ87555f3SrjdBSZg+ummF2hp1xOUjvrpJUsDOei0Y85x7bgj4HnuoIs+rpGF303g67ATuDrfNLtOfOzRzM7757s/v3n00ofe8e/KBm/48MQnoHqlrEug/OvMQ+N89dZvjP70t6+fvq6jmz0+6t8rGj4A8xfP+DXu9+///wAMoAAtFz9M6c1Q+Vue8dZGgAR1j3xts8YAJ0jBClpwgAW81AG3N6AH0m+BmULegTyov6dp44IoTKEKV1i5DFpqg4RKIAQHhCinyfCD+5MgC3fIwx72z4WVguGgbljCGorQQCRMXQSr4cMmOjGFCfocEGFGRAVyKIkzNGH+Np7IxS4GMIqcm6LIqpjFBmERh1rEhhfXyEbpgXFzYgwZGdFoxjMqMYdMbKMe9whHBEkRe9rj4ADseMcNEdJ7S6QGABXAyEY68pGQjKQjJyjJSlrykZS8pCNlWKDLZVCImJrjIUdZyG0sUpOohGQmU8lKBawSlZwkkCcBGcTEwUqUpDxk+Z5xylam8pW+vCQwLxnLAc1yQEh6oS1Lhctc2nGXzuhlMIU5wGmicpiWLOYAjjmAZNZSbflqpjOxCM1mWPOc6EynOtfJTmJyz4ob8ibMIibOcZKynMRopz73yc9+tlObDZKnyOj5Tnsa9IH4HIY/F8rQhjqUkQBlkED+Q0bQDh70ovC8xkM3ytGOBjOiC5powyo6SIyatJTW8KhKV8pSSDYzaaBkZkEfeIh6mq6mMy2hRlvK054+9KW0zNsyl0VGnFqUlEYtaUZT6tOmOlWfQEXmkbQ21FgVFRA2TUBSEZrIZzz1q2C1ZlS7OdW0SYuKOSXeVnO51qVWQ58LiKtc50rXutp1rv68q173Ste88vWvDuxeHK2a1jIWFo10LGxCfQHXvzq2rn59rGQXENnJ0jWw8BTp1ciIWQ+Or7No3Ck7LSvZypJ2r6Y9LWhLqFmmcRZB5CzoalH61nae1rGpvS1k+6lbuc4WkVIFnvZeO8Ikfha2gu2qM3r+y9zmOve50I2uYwNaVljFdHwMyK52s3vSB253u4vthXTHS97ymte81BWudasqKOx+l7vdJd57sxteXJz3vvjNr37vmt7srRecZyvofBkQX/nOt7632K+CF8zg5/Z3WdcV8HwL/LoBI1gWDc6whjdMWoYJFcBElfB7EZvco2YRdRZWbjM4zOIWuziuHkYciAlr4gGTGJ5crfGBVcyMF/v4xwqOcUwt5d4RlzDHSj3x6VKMR2gA+clQJq+Q2XupIn/3xkrG8ZJ33ORnRLcBYA6zmMdM5jKLubxmTrOax4zmNbvZzPzFHqXkd9gS6sjEodXGl9/M5zOTt8+AbkCbA/3+5jgHt0mkq3Mh75zkPGdjz4R286AjreZJUxrOdk1Wa+WoaOAyutE61TN0L71mS5OazX8+NabrqunqurbTn1Ysj5+h6lrb+ta4zrWuy5ygO90pq868cDJ2TexiG/vYu+61r+sE7FwKmxjIjra0p01tMit72Wpq9j1nLY1qe/vb4Lb1tbHtJW2P8tnDCLe6181ua8s61vCO947I0e5629vbIJW3vnVUjnv7+9/Fzve+B66ifgP84Ag/tcAJzvAGGdzWMCB2xHc9cTBr023vTiMJLt66jLcD1xXPdchB/gIxc1x8Hj/ByfGX8nSQ3AUSLznFZW7xlrMcz6E2wcpX/vD+Wo/81j+HOM0bsHObb9zmPG+PDt6jAYdvwOkqgHrjGLQNpqeHPUaQuteovgKtd3xBVcd6Hqy+dbA/netRR/vUza4VsUfE7UPwugXkXgK6030aZFdG3pX+ir3zvRV+//sqAi/4whv+8IhPvOIX7w3jrOY3jG+7aXTz+ONEHhuO/wrkL2+NzFOeNJwPvehHT/rSm/70yyA86iuh+tVHovWulwTcYy8N2NNeEba/fSFyr/tB8L73wA++8IdP/OIb//jIT77yl8/85jv/+dCPvvSnT/3qW//62M++9rfP/e57//vgD7/4x0/+8pv//OhPv/rXz/72u//9Bvn9eOSvBPqSZ8f+PZl99fF/BP4rx//wF4ACOIAEWIAGeIAImIAKuIAM2IAO+IAQGIESOIEUWIHRAIAWaAj6l4FpgIEcWBgb+IEbUXmrIYJ+UBohaIIugYIlqIJvYAse6IIhEIMyOAI0WIMzmII4GB4tuIM++INAGIRCOIREWIRGeIRImIRKuIRM2IRO+IRQGIVSOIVUWIXRFwEAIfkECAYAAAAsAAAAANwBGAGDATNo/////wAAAAAA/8ub/5kB/5j//jKe//8AmZiaNP8BAZj//5idaDL/AAAAAAAABP4QyEmrvTjrzbv/YCiOZGmeaKqubOu+cCzPdG3feK7vfO//wKBwSCwaj8ikcslsOp/QqHRKrVqv2Kx2y+16v+CweEwum8/otHrNbrvf8Lh8Tq/b7/i8fs/v+/+AgYKDhIWGh4iJiouMjY6PkJGSk5SVlpeYmZqbnJ2en6ChoqOkpaanqDwBqwGprq8arK2wtLWytbivt7m8vb6/wMHCw8TFxsfIycrLzM3Oz9DR0tPU1dbX2Nna29zd3t/g4eLj5OXm5+jp6uvs7e7v2Lvw8zvy9Pc29vj7Mfr8/wADChxIsKDBgwgTKlzIsKHDh8P8eZAI8RxFDhcrkssYi5VGdv4cM4T8SLKkyZMoU6oENXLllZaKYLqkIhNRzZlRbhrSidMJT0I/HQYVMjRQ0YVHfyT1sxRhU1UeLz01OFVH1Z5Ys2rdyrXrO1n2woJd5TXIWLITxI4FdHaWBLVgywJpSwHuVTB000Z9e1au0r560fJd+yfvYLcADPutB/hw3caLI0ueTLmyZV93L7fIbIezZhWe6YT+fGK0HNOkSaAmIqC169ewY8t+jXFvh9m4c8OGobs3bt6+g9PWZRuN8OMCagu+jTw48Oa9n0PPDWv1kOnRN8jErls699jevw93ZV2I+NnKEXM4Lzs8e/fnqxc/w76+/fv48+sXMKC///8ABv4o4IAEFmhgf+fsp+CCDDZ434EQRihhhAk6aOGFGGbo2oQcdshhhRqGKOKI4nlo4okDgkjiiiy2uKF/BMQo44w01mjjjTjmqGOM/43j4o9AhvjfjkQWaWSRPYoT5JJMLjjkkVBGeWSS4TRp5ZXsPSnlllzWSCU4BYQp5phklmnmmPqdqeaaZKbJ5ptnuhmmljgaYOedeOap55589rnnjl9uA+egbeZH6KEFyInom4rSeaOfkEYqqZ6A+vfNooMqiqmamm5qZqMw6jjpqKT+qWOg2njKZqeqomloq3G+OmeoOZZqa6mVIugNrLz26uuvwAZrpqMy3prnAcgewGeyyv7eeiOq2Qgr7bTUVisssTEaiyezyyZr7LOW7mrtuOSWay6Z2BKg7Z3c7tmureDq2s259NZrb6/prmvnu8d666yN0GJz78AEF7wmnd0iq+/Cfc4Y8DUGRyzxwAi76y/DGN/pcLjzTuzxx9ZWrCe/GTO8sbzcgKzyyr+K3K/CJWd88gDfIGDzzTjnrPPOOEvL889A5+xz0ETzPLTNLscM6YDbXpznzBik6EzRVAstbNVYI3B01kRvnbTSfTLNrtN4Qn2B1M1wTfXWav/Mdts7e02rumBHKva+ZGssY8BoMwN30G//3fPVghtNONJz1223gE3DTOneHFfQ9zKFV2755f6YZ675zl8rbsB/CYQueuj/RWq2BKCPLvrDwmzu+uuwx75554qnrnoCpUN6OgC2q856MLIHL/zwxOtMe929j567n7snv3rkxxQv/fTUW3482M6T7p/pkKOcPe7QG1P9+OSXD/T1k5K85/fKb28qjwLefvvvwJhv//3joy+p+nqy/3x/fJqZ/7SHsujh74AIlJ3+IsW/PA0QfAB8HwEGJD/fha8YCcygBjG3QEg1EE8PXN7TugegCravgMZQgApXyMIWuvCFLHQdDGdIwxbKsIY4hOENVdhBjD3whBAyofzo94scGtGGmzuiEhWwwyXisIk9ZNgP/xdEIVoQhcVwov4Rm6jFGXKxiy+EYuI850D/WPGKVTwjAWmmDDDW8ItujGES46jDOfJwjGS80xTXeCA1UnEZdAykIAdJyEIa8oX6++Co9ujHRgIRkIeMpCQnSUlDJjJvtmKkIx1JRF9U8pOgDKUoXXhJx2lLk5v0Yyd7McpWuvKVgixls9aFylSecZW8gKUud8lLUgpoRiXjVy1tmUpcwqKXyExmKwcEzIwJ04zEjKYqLwgMZVrzmpJkZrGc6bRhSnOaWKwmNsdJzjhqM1vcNKU3v3lLav5iAfCMpzznSc96yjOS9synPueJz336055dNFEz8WbKhT1QFsNEKDTn505f/POh/DwkRP4nuoB+UvSfAfXQQA2gyEwu1IQK7Q8xQzqAChrzFRd9qEVTqs+VshSgWhToNgk6Syl+tIIkHSkrvndSV7x0ny79aUQNKdR8ZrRDG+1oqQ6605s2MqdDbGgvikrVqlr1qlj9JwUbGUVjhTB+VuzdVhkazndm9axoTata9zlWNXb1Vl8NUDtFSkWeSpUXa82rXvda1bbOdQAbRZ5TyVrCsH7Ur380Bl8Xy9jG6hOxQnyrR+kaWbBWlrIQLCxhj+HYznp2sXElUGBHpdTeMeC0qD0tO8+Y2tT2NBWfja1szxrac9LNVqX9aGtRu1or7va0r0XFbIdL3J/W9pczLVVuMf77Wwb0VojNDe4pikvd6mp1sGi0rbGWW1LRNfe5JozuXXPRgPKa97zoTa96z4vW9br3vehtL3znu96JTui8+RpbQeGq298C0aTYNe1vpWsK+ho4vmc9sIIbIN8F09e+EsLv3JKKyaX2d7f/jSpmMxw68ZbVFw42cIND/N4Rk7i+EL2vefNLU4NeuLUcRiOAmTvg8eLixPA1MY4RnNUduxfCEZJwfx6l35p69cWpjbGSqTg6D7OxGD6OspSnTOUqW1m96RqtD7ELRBRtOLHJuLKYx0zmMl85y8kt2XFRNOMnI8PMcI6znOecXjSjU2lrPlGbl0HnPvv5z1K2821jlv5nE+1ZGYBOtKLjLAsF27ZLUVpnMW0cjEVb+tJVbvSBHw3pKXEZvGBmBqZHTWoSa9rAnO40kj4N6sw+o9SwjjV8T03fVKs6V91t9aHbIWYYnJfWJPa1eoE9bFaclwJi9bKyly2he/T6Bb829o6FnV5iV1va5UX2YZnN7W4HyNlXpnYDrL1gcUd7FfOltbYx6+12exvcVhY3uRVsbvPO297YbsC6c51Zd/v7RKmxAFzQYFfvBZjSGSi4mxWei/JkYeBnYPgEJG4CivPu4B82hcOxAHEzWNziJPg4xt0sn+WwxTYb34HIv7xGFKyc34/ERcq1MPMO8MQeB+JAzlewc/4L9DzgAp+PEW5um59HzUAsMPrEkQ70C9Q8PaopOtM1oPSKT11yV296YNRzBKIvp+pYL1DSs750sWv97GhPu9rXzva2bx3qbidGSJ4ed5sIvQJ0r/tO7v4Yk+u9GHn/+yQCL/hIEL7wjzg84hfP+MY7/vGQj7zkJ0/5ylv+8pjPvOY3z/nOe/7zoA+96EdP+tKb/vSoT73qV8/61rv+9bCPvexnT3u88B31ig9D7oG++y/0PjW/70LwPzP82hv/+MhPvvKXz/zmO//5dvf7RG7/eK9zXQ/Wz3z2C0N9kXS/8dtnyvedPv7Fhx/66E+/+tfP/va7//3wj38Sin8Z+rU/vPyitz/H8R96/b+E/6Dnf9kggJJBgDQBgJ9ngFOggH7BgDmBgJ7ngFAggV5BgT4BgZ1ngU2ggVvBgUvggVkBgmYBGYqRgSSIgXegGCXIeSqIgp1xgoSRgDB4fYXQgjEYgTNICSLYEzvYdS6oeT04dD+ofUPIfdKnekFYBEm4Eks4BE2YEk84gkeYelE4F0V4eVUof1q4hVzYhV74hWAYhmI4hmRYhmZ4hmiYhmq4hmwIDREAACH5BAgGAAAALAAAAADcARgBgwEzaP////8AAAAAAP/Lm/+ZAf+Y//4ynv//AJmYmjT/AQGY//+YnWgy/wAAAAAAAAT+EMhJq7046827/2AojmRpnmiqrmzrvnAsz3Rt33iu73zv/8CgcEgsGo/IpHLJbDqf0Kh0Sq1ar9isdsvter/gsHhMLpvP6LR6zW673/C4fE6v2+/4vH7P7/v/gIGCg4SFhoeIiYqLjI2Oj5CRkpOUlZaXmJmamyYBngGcoaJBn6Cjp6g3pamsrS+rrrGyIbAStbO4ubafFLe6v663vsDEp8K8xcmtw8rNo8zO0ZrQ0tWV1NbZ2tvc3d7f4OHi4+Tl5ufo6err7O3u7/Dx8vP09fb3+Pn6+/z9/v8AAwocSLCgwYMIEypcyLChw4cQI0qcSLGixYsYM2rc6A8bR4r+Hj9KDCkSIsmSKFOqXMmypctiJ19iiZmIpswqNg/lvCllZyGfPJ8A3RNyaFAeRZEZSurpaBSmppYqzWDUaQ6oiLBadaJ1q9evYMOKHcuyKtkTPs3+UXuWRNqplNi2FfG26SW5c0HUjZq3r9+/gAMLDtV18FW4F/CuKWxYFWILitUwblxjsiDLlGVgBiSgs+fOpT6LHi0ABunTqE+bTs069erWsEUzihzndOjYpV/g3p3bBW/cr3+znv04ke1Pu4MLR618OenmzmUvog3nuKfkuqMzz679Offu0hVRfwO+vPnz6NOrPz2gvfv38OPLn0+/vv32/dbr38+///77AAb+KGCA+fln4IEIJsjegAw2OGCBCkYo4YTnOWjhhfNBSOGGHHZI2nsEhCjiiCSWaOKJKKaoYojv5ePhizBuCOKKNNZoI40t4hPjjjwaOOONQAZpY4739Gjkkej9KOSSTJJIpD0FRCnllFRWaeV6VmapZZZYbunlll1WqeSJBpRp5plopqnmmmyqueKT8Xwpp5RhzmlnnXbKiaeUY5rY5p+ABprmm+7Vk+eXex6qZaKKXqleln2WKOiklLqpIpzwNLroo5p6yWindHIqpnsrVmpqpYTiRw+orLbq6quwxtpppASciuYBuB6wZq66nnoipu/IKuywxBZrrJW02nomr7v+5mrrr4Wueuy01FZr7ZbJKlsms2pyayq0qs5z7bjklitsttp6e6uzvpoIrDvmxivvvHMq2Syu2ub754jvtkPvvwD/a2+37OprMJr8RituwAw3bO3Aaap78MEJhyuPwxhnPCzE6+I78ccVD1APAiSXbPLJKKdMbMost8zyyi7H7HKepXzJMscfAzrfsgUjLOK7GZIj89Alw0z00QgYjfTQNH9ic8o459zmzmZKbGbIGAQ9ztIxK831zMN+zbSdNXt5M6kiSi0o1dv2fCbWF2gtjtgvh0032MLejbecZW95dnsjqh0o2wZYXSbcFsgdjt6MN+7445DHXIrMk8ccteD+Zb6XwOacb/4eoIgDoHnnnPdrTeSop6766i1X7rLrLV+O+eikJ/D5vj8rLLp7tXuuezesBy/88HfDzrLxUKMdIuZq0k767W2G7nznpldD/PXYZ48y8tt/IrPsgk9funug526x+L5bDLz27LfvPt3gT2o4mug/T76lLMrXu/3qc/P+/wAMIMriJ6j5nal+1LvfoMwHn/0lsH/bEKAEJ8g+AgbKgGZC4Pjas6aQaTB9IgMHBUdIQtZZEFAYzBzvHAjCDjLwg7b7HTcUQMMa2vCGOMyh6nLIwx7ycIc+DKIPTca9oZWChyecGAwfCCAW1q560hCiFGsIxClaUQFVvKL+FInova8dMYdJPNgSN9hEJzIxHFoMYhbTOMTUsXGLJSsi5T6BROXVinn0W6EZQXifPZIRjW/UoRsD2UbUEbKQCJCj5OgIRjviMY/t8SMf7SPJGEJQG4fMpCY3yclOenKKFkzh4PRYyVKaEYrR+KQqV8nKVrpSAaF026nGaMpKotIZr8ylLnfJSxzG0mPaomUt/XjLZvTymMhM5iZ/2atgknKY0PwjOJRJzWpu8os+xCYs7RO4ialLmNE0ZTGBYc1ymlOL2uShNu/TzYN985nhjOcZZ3jOetozh+nEJyNpyM60ebNn4JQnMWVYjXsa1KD5xOE6uelPdwIUngKN5zj+f7GAilr0ohjNqEZXqdGOerSjHP2oSD96xYXGZ38cEyWlYFiKgG6upRC1ZAi3MdKaWjSkNs3pAnCq05qWdJ/bPGnvUipLZ0bSiTA9qimTOgCUElQaPRUpT6NKUlVS1adWNGkDh+rIqhVVWSz9hEsTwFSnXjIaVwWpVdNa1U+yta1S1Gr9iApMg4XVE2MtK1fP6oy3+vWvgA2sYN8qzDCCNaZMhKHz5mPWmWpjsJCNrGQnm9bCdpV5itWfExer2Sc+Fa2UDa1oRztZywKuobNDLBkzq1SZzvWzfSWtbGdL256adgDtTG1rG8vapq42phPVRW2HS9zhvjZAuaWUKJ3+x4DmOre5EXXgc58b3FwU97rYpexxAZRc+X31gKScrnOjuz/xNre6uMiuetf71+32c3mnWm54zUve3pmXAeidBXv3y1+dupeh8DWVfFt73/rW7r75lUUDFszgBjv4wRCWLIQnTOEJS7jCGK6wf4Hrngmjq3DfnRRz6UvGxpqYcwiGbTMyzGIGX7jFMG7Ai2PM4g3vlowetmNuVfqnEYuXiSf2LIHNm+BY0BjDMz6yhiOr5BrndLs5Pq2kvFpXW/l4ukDeq2+FvOUEpJivK25yhJks5iVDtsxmrimUIfxhHk9tvj8usZaD7GUiq1gZaM6znvfM5z6jeT4ZplV3xaj+2kliqLHh8LOiF83oRosZ0BgWNGo/1lsM3RiEiXa0pjfN6UZDusKSDnDOKm1pRIOj06hOtaqP/GkKh/qOUiP1obWc6VUzuhS2zrWf59OkJo11mEUGhq4XjethG7vMvO71kn5dy2D/4th9Lja0pw3jZCs7SMwW552zQW09S7vb4I4yfK4tpGyX0tnoYLReikMBdb/A3RL4r6XnTe/6GIPdR4B3B0KibxboW971DrjA720XJ/R7A/xeNAz+zWGBO9zhBOcLEw6ugYQreuEKnwDAH85xB0UcD6U4RsglPoTxaGC7FED5CVQe74Y7lhMiJ7kbRl5wANBc5qTAtwxYvrv+S8sUBTznOcynYvKn0LwXRz9C0bPm8pQ3feVPb7nP0S2Vmi9dKEnfxciRcPXERb3nXZ6nCYL+9aFbXedx6HoW7sMBtq/A7V63NyvUPhO00wHuGcA70O3DdLmngu5XALwV9B43vr/d8HGnzzLsPgfBV4HwiVcc1P1eAcgThvFycHxmZqH5zcei855ffM1D75K9kB4FoG+D6U/fCcw3YvWsd4vriTP6D6T+K7ePve53z/ve+/73wA++8IdP/OLnIvfGdwTyk097nDO/Gst/vvSnT/3qW//62M++9rfP/e57//vgD7/4x0/+8pv//OhPv/rXz/72u//98EfK7OPffPr+m9359pdE9PPfhc3wHxD+939+EIACyAcEWIAImIAKuIAMOH2w14B18IAQ2Hjzp3X4N4FsIIEYuIEc2IEe+IFbcYAgKBlot38jCAQieIJnkIIiYYK44IJQAINfIIOfV4ERaIOEQIPBgIMUWHv6x4ProINMIIRbQISBYYRZgIR/oYSBB4Tbx4RWAIV5IYUqWIVWeIVYuA03h3Rnt3XZt4UTEHNUuANgaIFcGHLaV4Y2R3RZ1wdqKIZOqHtvyIZeOIBtCIc+6IB3SIdomIV++IeAGIgFMYZnQYhGl4fqZ4gxGIdfyIh2iIjpp4hYB4noJ4lc4YjXZ4lNoIm4h4kG6Ikd1ceJgjiKpFiKpniKqJiKqriKrNiKrviKsMgFEQAAIfkECAYAAAAsAAAAANwBGAGDATNo/////wAAAAAA/8ub/5kB/5j//jKe//8AmZiaNP8BAZj//5idaDL/AAAAAAAABP4QyEmrvTjrzbv/YCiOZGmeaKqubOu+cCzPdG3feK7vfO//wKBwSCwaj8ikcslsOp/QqHRKrVqv2Kx2y+16v+CweEwum8/otHrNbrvf8Lh8Tq/b7/i8fs/v+/+AgYKDhIWGh4iJiouMWgGPAY2Sk26QkZSYmWSWmp2eXJyfoqNSoaSnqEimqaytPquusbI0sLO2tyKWq7qQuL6/FryPFMKXwMe4xcTCyM22yhPQztPJvdTXyLXY27La3N+p3uDjouLk55nm6OuN6uzviO7w8/T19vf4+fr7/P3+/wADChxIsKDBgwgTKlzIsKHDhxAjSpxIsaLFixgzatzIsaPHj/4gQ4ocmVEeyZMeTKJcmUEly5fLhsGcqWGXNZo4AdiUmZPmTmM9Yf4MGtQl0ZFGj4ZMqvQj06ZQSTyNqnEqVYxWr1rMqrWr169gw4odS7as2bNo06pdq/QpV7bj3N6E+08uT7r+7ALFy7ev37+AAwseTLiw4cOIZwpYzLix48eQG8OITLmy48mWM0cm9Pad5s+XX4AeLQAzac2c5xo8/dk068quX28e1JmdbMuxb4d2oZty6rvYegsfTry48eOgByhfzry58+fQo0ufrlwi8uvYs2vfzpi69+/gv1vnTr68+fORw6tfr348+vfw4xdnT78+dPfy8+vfD5k5gf8ABv4o4IAEFmjggQj+x5xD/DXoYH7+JSjhhBRKuGBDD2aoIXkRVujhhxReyNCGJJZoXIcgpqiigCIudF0BMMYo44w01ijjizbmqOONyO3oY46NoVigAUQWaeSRSCap5JJJJtjiaj3+KCWPx01pZQE4XvljkMslyOSXYIaJpJPLKZSlljueiSaQUa6pI5fKeSnmnHSOieCTBanpJo167kmlcX6yuZiQBNZpaJ1kVpdQoIw26uijkEZaI6H/HXrkAZgeoGSmmh5aIJ4ESSrqqKSWKimlBFhqJKebZmrpp2UuauqstNZq64yoqlokq0nyaiisiiJ067DEFttorroa4Oulrv56SiCoAxkr7bTU6ohiq5gmq+2SAUIrULXghivttb02u+25RXYbq7DituuuqeQiuSy626ob7EHv5qvvo/Eymy296No7gEKiImDwwQgnrPDCCBfM8MMQN1yjJWtGbPHDMvYLcJLQYdupnQquC8B9+VAs6cUoJ+xwyinbaLKWLLOccZcAbsxkx+X+CzIBLZKMz8uQxtzyyUJf7DIkFRdt8cxx1myzkjjLa+6RAlPg8z1AP6r00kRvjfHESKPpNcRMDxDg01A/57GSVU9wtT2WjC333HTXbffdKGtsM3MJ9O1338zRKTDff/vt7Tt4J6744ow3joDeGxNeeAKBzzn4cv6TAy6yPY537vnnoCsMOcCSF165mJcrlznlm9cT+uuwx0736PSW/vfpYaY+wOqHsyP778AHDzHtc85bpO2Z4842gMhP3vs6wkcv/e/Ei2k8kc2bvhyYAq9+e+v0TC/++J1XH+b1BmT/vXLcM4+595rfyzn59Ndft/lgoq++4dt/2T38rJOf6xKngAIa8IAITKACD6i4BTrwgQqIW9EkqDAIKiA8DDwY/pK1P+eBB4DaEyA13NFAC5owgSU8oQUpGDMWIsyCGDQgwjaoqw6G0DsgXN/AvkFCAqrwhyn8oQNdmDIiGgyG4MmgwWioKhvqkDo55J8Ip9FDvAlRhUG8Yv4CjXgxLiLxO0p8HM0qhTbsvS+K4Yli/HbIDXdo8Y1wjKMc50jHE9owPGf7EvrA5EQ1+lGH+qijIAdJyEIO8o7gySOT9vilPv7xj89DhyEnSclKWtKAiPyOIpfEyJud8ZGg5B345nHJUprylFfMpHc2ubZDOTKUOYzkOVBJy1rasoDQ8SN0WJksTr0SlqCUJTduScxiUjKXatyl087ly08C85nJG6UkjUnNasoRmWh8Di911UzVQfObHpziNK1JznKaEJux1OYyt9XN3YHznWu0xyQXQM962vOe+MynPeepz376c58KtMQb/3nPNErRbOvsZJhsaIlf+q2hzjwoPP4EakiCWjSf/LyoRhewQIpecaMGXeMmFcrHiE4Oot58JErdGU42rsOjhNzoRjMqU4J2FBID1WhIA4hQMhKJpI00aeFWGkqiRlOcPMRpRWtqUZoytZ83fUROL7rTfgHVkyn1nlFVConsCZOKkHiqWMdK1rKa9axopc42t6VKVT5RqF/FBlrnSte62vWu/1TrOmsn1LdmVZRZRScg64HXwhr2sIi1qF59Srq+HtStj4WrNM+R2Mpa9rJ1XWyq9ubYNULWs5JFKjkwS9rSmnasTFzV1IxUOga49rWuhefqYAvbuF7jtLjNrW7xmdpdrfZ4n6Tta2WbOeG61rbU2K1yl/5L2t7+9LdmzKpxGUDcyU0XudNgrna3W1jnKgu66QuucatbuOtOdrR2bYB618ve9rr3vey9K3znS9/2yre++IWvPZH1XJ3VqbXjPShgWXrDv5lXtOO4b34XvF4FM3jBDn4wfvc7RgGp1r90ArBwdTjgDvvtwC6FR4QlTN8Rk1i/6T3xhOvJ3+9ieE4api2Hj0rgGfcNxPYwsYrtm+Idz1fHPlYvhZs2oAt/7L/i3bCAaezhGxsXu84I8o4tIeUqW/nKWF6wMg/E17/S2D5ejmc+ssxgKpP5zGhOs4S3bKAu1/jLYB6wPtRMXzPT+c54VjObh4SutsaZxnPOc3vtLP7oQht6x3suVJ87y1Mwv1nM+Di0egkt6Upbmr14XJGHHApMKM+hNjGoNKUvTepDZ1rTIWI0PD0tB1DDQNSQKLWsJX1qVFtI1e9kdRxc/QJYP2LWwBZ0rW19J1yDU9dw4LUL0PzqMzebzCjws6OnTe3nMELZLWB2r529bWifQNrVDje1r62aI2h72dxGt7dNAG5xu7s+5AaOudOdbXqz4NwlaPe79x2eeO/lDNLQyVwCjgiviszgCOYAwl26cH//BNtECPjDy22IhrsttCEegcUlsPFESJwZY/j4XQh+iI53nAQmx7jDBw5yMYgcKCSvuMovHmaeRnvmHMe5x1sucP5eHIU6Cp8OC4B+AaKng+JKMXoGlH5z6WCA6ZOAeEagbgGq51voRcf60eXdFKtbTespsLrXFyF1K5S9BmcvS9qnsHYZtF0sb4dC3F8w96/UvQl3Z0HetbJ3JfQ9MWH4OwgED3gvED4lSC+8IQ7fAcYrPguOf7zkJ0/5ylv+8pjPvOY3z/nOe/7zoA+96EdP+tKb/vSoT73qV8/61rv+9bCPvexnT/va2/72uM+97nfP+977/vfAD77wxxL54aOh+MY3A/KTv4nEM3/r/35+J5YvfTBQv/qGdz72t8/97nv/+7Z/eUx0Af48iD8aPC8/Hc4vgZirP9k8nzjX30//+s7b//74/8v184937fOfD/v3f37nf2ERgM9AgHtggI6AgAihgEnggFgAga4ggUZAgVVggeHAgOangYDgDhgIFh7IgXcQgvPXeiQYfYFwgrWngofAgrPnggIYgzI4gzSYE3phgiLYfjnYBjfIej3oBz+oekEIgDv4gU0xhDWYhEq4hEw4ETAYe09IG/5nhF4RhYJgha6HhR04hTsYelrYgl0Ie1Qod2H4emP4BGe4FmnYfyXIe2vYhHAYh3I4h3RYh3Z4h3iYh3q4h3zYh5QQAQAh+QQIBgAAACwAAAAA3AEYAYMBM2j/////AAAAAAD/y5v/mQH/mP/+Mp7//wCZmJo0/wEBmP//mJ1oMv8AAAAAAAAE/hDISau9OOvNu/9gKI5kaZ5oqq5s675wLM90bd94ru987//AoHBILBqPyKRyyWw6n9CodEqtWq/YrHbL7Xq/4LB4TC6bz+i0es1uu9/wuHxOr9vv+Lx+z5cE/gF9goOELoCBhYmKix2HjI+Qj46RlJV8k5aZmnKYm56faJ2go6ReoqWoqaqrrK2ur7CxsrO0tbaeh526uX+3vr8AvL0Tu7zAx7TCiH6AFMrI0LDPxM3UxtHY2drb3N3e3+Dh4uPkdqfl6LjV6ezqw+3wlufx9Inz9fh99/n8ePv9AOf8C0iwoMGDCBMqXMiwocOHECNKnEixosWLGDNq3Mixo8eP/iBDClwnsiSOgSZTrkCpsqUJli5jhoApsyYHmjZzXsCpsyezdz6DOhM29JpQm9N+5jqaM2kwokxrOnUatSfPqi6vYlWpdavJrl5Fgg0LcixZj2bPckyrtq3bt3Djyp1Lt67du3jz6t3LVwrbvgj/AjYoeDDBwoYTK17MuLHjx5AjS55MuXJdAZgza97MubNmGJ5Di94MerRpz5ZznF5N+gXr1wJKwz6dGsfs1bJvi86tG3VtG71H8w7e2gXx0L81HF/OvLnz59BZD5hOvbr169iza9/OfTrG6ODDix9PPnP38+jTo/9evr379/A9q59Pfz77+Pjz63dev7//7Pft/ifggAR2Vh0BCCao4IIMNujggxBGiGB1FBVo4YUCHijhhhx2uCGFE2Eo4ojtaejhiSh2CKJEJLbo4nMmpijjjAuuGJFzBeSo44489ujjjuD9KOSQPAZJ5JE/ykedhAY06eSTUEYp5ZRUSimhjQzhiOSWQEbH5ZcFGAkmkkpOx2SVaKapJpRXUgeRlmMeKWacQ85JZ5IGLhnhmnz2aWWEWC4E5514QkdonV4eWuhmMTro56N+tundQ4pWaumlmGaqqY+NJggplAeEesCUoo4KqYOBKrTpqqy26uqmnSL46ZOlkirqp6i6SemrvPbq6688xkrArE7WKqWxj+Y6qUPA/jbr7LOWCktsk8iCeuupDaaaELTcduvtkDHaGuq0UGaHa4I2AhjQt+y2y224x15LbpPmYjuhrhKoC5C7/PbLK7xRVktuvcmiiy8A+vbj78IMYwqwtePOSy925967LMLYEYQpAhx37PHHIIfs8aoil2zyxySfrLLIPz4scZTVJSDzzDJXR6u8bBp8Hc00a8vOxisHPfKmQheNQMpGr9yynrK+PGXMPNdM3c0RR6lgdlFLfTE9QCetMtJemwx22CxzyvSwTksJddQ2F4vzk1djl3UCPqfTNdlla4q32ETvnXewZ6etNnVzt03t207GvXPWdaPj9+OQRy755JSH7LLg/gasPTfdU6Op+ACbz9x4OZWXbvrpqFd+ueCaF955lZ+HrvUA/KRu++245w7y6mm3zvjrVMYu++jk6G788chDzrvTvrMN/JTCh078OMlXb/3t2am8PJ8CO9n85urJzvP04lxv/vmTZ3/y9mt2P/F04vecXvyiH0wP+vjnH7b6JrOvpvuZIxz9OIeeARKQdvnQnwIXuD7saC9w0wLg91xXwAGSLxySU4AGN8jBDnrwgxwsHQhHuMFDgFCEJOzg96ojMv8NTIAGjGH8LrgKs2QwhTg8YeVy+EETfhCFPFwhdVoIQcx5D4YyTCIFEfgLG0aOh1DcIBCjqAAfenCKOBTi/nSIaCZPGfGI8FOiGJ23NVs4EXJUhCIWoWjFDq6RhFocABcHoKAvghF0Y8zj7I5hljT68Y+ADKQgB0nIOHanjmgC4NOQqMdG1q+M6CCkJCdJyUpa8oOG5A4iq6TIwYXRkaA8ID0uScpSmvKUmGTkI8+zSSp1EmaqDOUYabgNVNrylrgMZCa300pxmWpNE5SlDGmpjVwa85jIhGMswVfEeZUqmDI7BDQ3J81lEjMbycymNo05Tfl1sWkSe+YyaVbNT8awnHgkIxPbsc12upOU3VxlLyMoqmmiU4n3/B0ky/HOfvpTkPGc3TyJJU5zzi2fMkTo+OyXDkou4KEQjahE/idK0YiSsqIYzahEL6rRjmJNn3T04uGqNqtpflR6SDzpQvdJDod29KUT5ShMZ7oAmdJUoir1ZkjBaYBXqsmkchteSoOqzlFO8qYztSlSM6rUpeZUniLtKeIeBdTFodScT91jPFy6VI02tasxvSRYIZrVA7bSp2mqqnXEp7myXhMbY42rXOdK17ra9aWHjCrzkMiAvvq1r8KM2l//+tZo3PWwiE2sYhWbV57u1ZyD9WtgeRbZvhYWGovNrGY3y9mKNhZtrONrZSdLs8oy4LLI6KxqV8taun7WiJozLWlnZlrUHqO1uM2tbpHqwniR9EmxHe0ql0hc2lbWtsDYrXKX/svch/Y2YFMNIGSFO7viqrO0x2UoOprL3e6q9rkQ+2W5RBtZnVp3pelMQG21Ww7vuve9iAUv1cQLXPIO1rwgPe96WToOuzbgvwAOsIAHTOAAJ7bACE6wgA+s4AYX2LNnO2t0+6TW/xh0lfzwr4M3bGDEcvjDDWAwiB0M4W8uaL4vvLA6LZxenWa4riPesIhjnOAZ0/jBFJWW234LqQpbeIkvpuuNFWzjIS/Yw0bG8UR1PFL69nicq2QxkPNR4EMk+cpYzrKWt3zj7JwptComLXKdgBgnVBkQXE6zmtfMZhp7eU+YC2gjx9yEMjfhzH9os573zGc2vxlCsIWyMOnM/gQ7MwHPAeizohfN6BH/+UGBDvNkCb0EQ1cazQq2cqM3zek2txU7NKIRi9XDBksrQdMJRnWnV83qJH/6OqGe0ajTU2qShALTqcZ1q3fNaw6/2jqxltGs17MGUydB1YjutbKXjeBfCyvYgBp2d2oNFDRoGQZqxnaaWeBjaXtbOy5+yLVfkG1yb3sF3f62un8NkXG7oNzvPrcK0r3udYfbIe5uAbz1Le8U0Lve3753SIydiThSwOAnQHi+rMleMEyFJFR5A8EtoXCMhRm1Fa84GR4OlIi7YeKVyDjD+esBkV+84V/g+DKeYpQ4gJwSJm8xhhM+8nVqfAwqL8pSAvJy/hpM+wI/nzd3OBD05Iig5zMo+sGHjm6ma0DpRv8A0mUA9YVvh9tOz0DVo34TW19h61snQdgnMHbCeN0CU69BMVa+mLRjwNgDcfsM1v4YuaP97C2IO96xQHfH2L0CcN+7Ndi+hb435u865wHid7B4mfzd8GoXvBgaH5PHQ1zyece8wzUPGMt3nPMqoPxJQM8Xz69c9FxHBepTr4rVs171pH99Olwv+9rb/va4z73ud8/73vv+98APvvCHT/ziG//4yE++8pfP/OY7//nQj770p0/96lv/+tjPvva3z/3ue//74A+/+MdP/sPHvvyRoD36U37+9TNC/e7nAvzjr4X50dOf7+2/PyHsr/86Q0Up/Nd/Q6ByASiAQUCA+WeAxfZ/LLdzCrgIBfiA/ldtEggJEViBp5aAGFgHF7iBR9CBHlgEIBiCA6iBVTGCioGCfmGCy6eCUeCCgwGDTyCDfUGDJHiDOJiDOriDPNiDPviDk6EVNsgUQsiCt0aBHjCER1GESJgHTEh4xPeE+5d/SigUUgiEWJiFWriFXNiFXviFYBgXVYgXY4gEZWgXZ2gEaUgXa0gEbSgXbxiGcjiHdFiHdniHeJiHeriHfNiHfviHIxABACH5BAgGAAAALAAAAADcARgBgwEzaP////8AAAAAAP/Lm/+Y//+ZAf4ynv//AJmYmjT/AQGY//+YnWgy/wAAAAAAAAT+EMhJq7046827/2AojmRpnmiqrmzrvnAsz3Rt33iu73zv/8CgcEgsGo/IpHLJbDqf0Kh0Sq1ar9isdsvter/gsHhMLpvP6LR6zW673/C4fE6v2+/4vH6vDfgDfIGCgzJ/gISIiYohhouOj5ASjZGUlXSTGpiWm5xhmhifnaKjVqEWpqSpqkuoFK2rsLGys7S1tre4ubq7vL2+iq+Zf7/EG8Gcx6DDxcyny7HJF9HNudOU1q7P1M3Y297f4OHi4+Tl5ufoiMfd6e1569ru8sDx0vXz+IHwfvn9kOz+AuIBKLDgHIIGE7pBqLChw4cQI0qcSLGixYsYM2rcyLGjx4/+IEPKYiiyJA+SJlPeQKmyZaF7LmMCYSmzZgqaNnOSwKmz5weePoMKHUq0qNGjSJOmMqSpKVN+Sos+hSpJ29RDUYdezUYVwNasWqdyxepVLNizaNOqXcu2rdu3LIDCLSl3bsi6dj/izdtxL9+Nfv9mDCz4IuHCiKt2TUz0MOOIjh8/jCy5oNPFlVteJptZs1WYnUVuDp2TMumApk/3S60aH+vWsGPLnk279lkBuHPr3s27t24YvoML3w18uHHfxYUPWM68ufPn0KNLn059ucnj2Im/yM5dQPLuxr/7rk6+vPny18EfF68e+fb2w9nzPk+/Pv308IPLz597P3/v7yn+Z9+ABEKH338IJqjgggw2OB5zBEQo4YQUVmjhhRhmqGGEzYHk4IcghiiiiM1taOKJKJ7Y4UcjtujiizAKuFyKNNZI44oexajjjjw2WKKNQAZpIY4d9WjkkUjKOMCGBTTp5JNQRinllFRKuSGRGCWp5ZZG/phhlWCGKWaUVzLHEZdoptmilxiO6eabVmqI5UVq1mnngmxeCOeecJZp3UYGBCrooIQWauigHx6q6KKEJsroo4c6GmieEvIJ5QGYHjBlppryeeGcFkEqaqMOjmqqAZKe+miqlEZo6ZOcbpqppZ+aCaiqkKaKq6K67mooqxBa+KqTsUpZ7J61/qmRr4z+9sosoqU+G2m0kwZb4bBNHnvprJ4Oaeuy0oYr7rjklmtuoWzKiim27FI5IagVnSvvvPTWe266xnLb7r5OvvttRvYGLPDABKNrLQHqdsovv/4qC3DBEEcscbj4Rqntwuw2PABHE3fs8ceLVozxlNElPKXGFEQHEcgst9yxyCNHWXK+68bJ4b8qP+TyzjwHDHPMT85ssb5QojxBzg71rPTS5P4MdJNCb1szmRISiXRDCGSt9dZcd+311vJ+LfbYXIdN9tlfm5210xg3l8DbcL/d3Jsaux033PDmg/beZZ/L998IqA342YKzvbDddycwt5t1M5e43P8KNPjegk8uduX+lntd+MFPO4n43YuP2fhyjyseeUCZk4156mD7zXrarq/NeecFfB536GKOPkDpeePz+u/ABy/88Gif97Xhbl7sueOl481cmBo377zDkhNv/fXYZ0+28V4jP6byUDMvPe4nVy1+873Po/367LcPPPddey8m+LWfz/vzYEYvvenUo+7+/wAMoNjgxzX5hYl+tnsc+WxGgAQmLn3yEKAExWaICQbPgfxzztYMiC0M3q88+wPd6ZYCmhdY8IRaqyAKWYfB6Gxwdp3zoALNE8LbjZAUkVnhCVWoQ8u1EDovnFGlaCfDB9KwhpDrHwkxI4MeTpCHTgTcD58TxCUNMYb229/+eZCYxI2NpIQuUIAYx0jGMprxjGS8HhrXyEYFQBGKlmujHNd4tuh8UDoTOiDR3lRELvrRiEpExmeY2II5GrKMajykHN/4h9cpUpF1hM4do5NHMNEvTH38oyYzuIrRzOCRh0wkKNHISD84cpRyjORzJgmdSlbpkmDK5Cb9CMFIeFIGqEyl9XJ5xlIG4JS8RKMqncPK57iSSrCskixnicRa/mOQnHlBMKdJzWkaoprYDKYdZ2jMK7aLU8tk5iyd+YjIZPOc6FzjNdPJTjluE5DOOSa7wJlFcdpThIHchDnbyc9srrOfAB3jO/EZT2/OM1PhvCctb6hPMBYyoBBF5T/+I8rPgdqwm67iFz1Jp9COXtSLS4wmLilK0pKadI4WnZ4VM5qtPfKpj4ZIKNxiWk9OBuSkOM0pTlPaxWMmU0ww/YNM30ZTjsJTIDpNqlIBytMM+tSlewqqH4aagKLujpsg7cdSt8pVbDZVZD/FZE3jZtVZlhWrAlmAWtfK1ra69a1sZSdc50rXtsq1rniF6zTPI09+9bGpH/3oFLOaj7wa1q7pPKxiF3DXxeZ1r+bp677+Kkktnu+rDG2HYw3b2M3StbOe1as2I2tQv45VpZQ1agYHm9bQfjaxrp0raGMb19GWR7LtSi0xLatazOZTs7QNrnCHS9ziGletlCzt96D+Wj/VMuC50H2uR5sX3eiSkxzHza52t8vd4SaXpXBC4PmqC93plo68z73uOLrL3va6973IbaVy58fcz6GXAeZ93H3VKw74+ve/AHbtdxHGJ/E6F735Tdx+M5uOADv4wRCma6sI3NKpwcm+CFbpHTcMtwX/tsERDrGIAzxhWDFXrAcmb2CxyuG3eZiw+BixjGfM3hIT68SxHG+Gu9higsbtxa2lsZCHLFwbV1hhF9axijXM4ia7GL38DUcDpkzlKlv5yliucnazzOUuW3nLXg5zlsE85Qnj1lK6LZBqP6oQMbv5y8d9s5wbQOY5h7nOZp4vmk/bRTVf9agJsbOb6yz+aC4TutBYxvPB9GTaNWPVz3dsM6K7fOhJaznOlh4zpsu8aGE1+s/o83NNo0yOTJv61KhOtapXTeXqCKlGVB0ng3PwmjGw+ta4zrWuUe3qV6co1pskNQxqLYZdG/vYyE42p6fj61/z2bzCfgGxw6Dsalv72pPudbNNBGxNRtsF0wYDtsdN7nIvG9TFFLW61T0Th4b7CuaOt7yPneZ129vP7SbkWCIx7377W9X1vrfA7ZNvkVbg3Vb4t8IXXuiAD/zh6PnBPgy+i1vDwOIvSPVgrTbqWWOAtUfr+IdzgnEXlLwFGhe5c1KmchKAXAIvL8rJWTDzFaTc0X3GWctHEPP+mBOl5ioAegpujm7U6hznNhVBz3dum33f4Twfpw4LqhP15xABIAjnRdaJAPULUH0FX7fA1Qq+E4dCZOtD6LrYpQ52tq/d6kPAutknM3c1qL0CYU9B3lkOdyHIXd8TQXvT7QH4kA6eCYIvQ+IPP4HFj8HxjId8Fr6iGKb8ZeJIkDwWKF+Wp1ze3XWndegXwXnOzwXzR9D8FUpvlryg3giq90Ls+zL6lbS+85ZXxew5knjWe173tXd98Gvg+9wbvjW9v73pRbH72TS/D8NnvA2eP/noS58G1N+89a//ksJznyLZ/z4Oty9+f4S//J04P/rXz/72u//98I+//OdP//rT2//++M+//vfP//77//8AGIACOIAEWIAGeIAImIAKuIAM2IAO+IAQGIESOIEUWIEWeIEYmIEauIEcaHve14GdRH4g+EwfOILjV4ImaAm3lIInSBbqx4KsAE0weHyVN4Ow8II2+AQ4mINNsIM8GIMo+INCOIREWIRGeIRImIRKuIRM2IRO+IRQGIVSOIVUWIVWeIW64INY2H0Ut4WXIIJe+HhgGIZkWIZmeIZomIZquIZs2IZu+IZwGIdyOId0WId2eId4mId6uId82Id++IeAyAsRAAAh+QQIBgAAACwAAAAA3AEYAYMBM2j/////AAAAAAD/y5v/mP//mQH+Mp7//wCZmJo0/wEBmP//mJ1oMv8AAAAAAAAE/hDISau9OOvNu/9gKI5kaZ5oqq5s675wLM90bd94ru987//AoHBILBqPyKRyyWw6n9CodEqtWq/YrHbL7Xq/4LB4TC6bz+i0es1uu9/wuHxOr9vv+Lx+bwv4A3yBghV/gIMohYeKe4mLJY2OkXOQkiCUlZhrl5mcnZ6foKGio6SlpqeoqaqrrK2ur7CxsrO0tba3OZseuri9ErwcwHfCGsS+tcYYyZN/JMvHsc+EzYPSFNbQrdi/1Nne3+Dh4uPk5ebn6Onq6+zt7u/w8fLzqtv0q/aR+feo+4v+/EoBPDQwoKiCBhMqXMiwocOHECNKnEixosWLGDNq3DgPIceP/jo8ghxZQyTJkzBMolw5wphKljAtuOwWs6aLmX5s6myB09DOn0CDCh1KtKjRo+LsvUQqUSlNpkGd5oQ6VKpPqlizat3KtavXr2BZ9Awb9emFpWQXjk27cy1bomhlxH3raW5Ks3R92X2xN2+lvjzx+q0qeHDZqYaNAk6stjDjk4UoRXb8+OJkxAAuX63MUfO1y5xHep4wOjTLxabpoU4tbzVreK5fu4stmx3t2upu40anO6CA38CDCx9OHAbx48iPG0/OPPny5r8HSJ9Ovbr169iza98ufST07wKeg/8ufnzz8sy5q1/Pfr13885fwCcvf/75+t/b69+v/7394ej9/idcgAICR+Bx/CWoIHb+FejggxBGKOGE4FFHwIUYZqjhhhx26OGHIF5I3UYUlmjiiSimKJyFIbbo4ostjqiRijTWaOONybEI4448vihjRjgGKeSQFOrY45FIavgjRkQ26eSTOU4XYgFUVmnllVhmqeWWWYa45ERQhilmk0Z2yOWZaKaJpZfTXTTmm3DSWCaHatZpZ5cgfilRnHz2KeGcG94p6J1sdmeRAYgmquiijDZqYqOQRgrpo5JWKimljAJKwKBXHuDpAVp+CuqgHeoZkaWoJoppqqyuyiqqriaqKadWihrqp5yW2uahr1Yaa6+R/gqsoyVCOiutVNqapbKC/upqaEXDBltstL5OS620FBorJZ3IFsBsp7iSyqGpEF1r7rnopqvuutQaeaun3ca7ZYbkPsTuvfjmq+++jbq7bLjyBlwlvbtCy+/BCCessKT+YvmtwPIS/CxFC1ds8cX3NgwuvBALLPEAF2Es8sgkp6pxx2diVyvAV36MAYP8lCzzzDKfjPKWKlf58MAYkgvzPTQHLfTCNt+cZc7Jsmylyxf8TM/QUEeNb9FGX4m0t0rzLGLBFTg9DwJghy322GSXnW/ZaKeN9tlqt60222RTbTR1CdRtd93Uocm0BHTfbXe96rgteNhwD2544YYLjnjYct/ct98J5H3m3gA87jfg/ukk7vbimqfNeedm44t24yhbfrfkXFJu+t9cvwO656K/3vbnshMee9zbXlj10dNBjvd0evfM9eq/T+x67cgnD3Yhyjfv/PODk57mzlgSfznweG5tne/XGz8MZUVAL77gzI9v/vnIS48m9Vb3zj3r0mn5sfWnt/49Zkygr3/Y5e/v//9lU9+Z2Gcl+sFvAPIT3vbeVzyQMQJ8RADg+fonwQruT4BcImCVDNjABGqvOgxsIB968wELio+CJkxh2rAjNgW48IUuxKC8ONg99YSwhiOE4BBU6DwU8vCHYGNh2GAIQxnGi4b1W88Nk+hAPZDQA0BMng+jqEIhgo2ILzRi/reQeEDuLPGAOcTfEqhYuymS0YJWRAAWY5i7Te2ufdL5YgO9KEfMxeGJHVijHvcIQ/PBUDN/vIwe/cjHQvIxcdajjh6lp0E1cVGOkAQjMybzGUoewZCYfCEhXQjIF3YSi5vMpCgR6T7IKXKNjMyaoB4ZSUjaEQ2lyQxoLilKQ4bykwrAZR/HV8takjKOvjslFlPJMWSxspVffOUZYhlLIvSykLcUpCelCUpePhOTvxwA94RJRGKOypilRKY4TWk/NzBzlka4pjrXachCsPOd8IwnG4FJzvVkCGLfOuY4W6lMNeCRA/IM6DXdKdCCGnSR4WQid+4psHwmdJ8QrWcT/uvwzw0c9KJ7JChGNxrQRLKHoQFzKD0jSlIm4qGiGuCoSnP5h5W6dJ0etSeG8MkyfZb0hv1MA0oz8FKMarSnQK0lKzXWyDvRsBA2TQBSHyrC+21mCUE16E+jStU9DrWNKyvmDJnqt6WOFJJe1WYwy3lHHQqhqgGdKlrXOk+xJhOrOlMlrY76h6SGdZtkhcNOMcBWeKq1r1W9qnRAijWtHpGrd7srMhUr0ZOaNQgLiKxkJ0vZylr2opbNrGYzi9nNenaz8MQOXgc70zfSULQhtBxqG+uOz7pWsp19rWwXENvZuja01xntAAg7N8R20bcNVChXc/oN23q2tsYF7UGT/nvbd662hrx1HHAjl9vUhvO5Jm0tcy+73O0q16De/S5MqyvR6JZuutgd60jT29R2hPe98I2vfOdL38outLSCKqrlGMDf/vL3pu/zr3+J6436GvjACE7wfO+ru0HpN5wC7i+AuRdh/hI4GwrOsIY3zGHJMtiN+ZVrASFc4Qn7rsIMuDA0OsziFrvYux/m1INHimITQw7FKj7Gi3fM4x6/9lhJM+yg9lviA+r2yHbDcV7N4eMmO7nJQC7sN+dK4ggzEckSvZuSvZeOJ3v5yx2OclHRRGQrG1m9bq2hliucY1+A+c1wNrCYRVynMgv4ymjGcgK2PNF1NODPgA60oAdN/ugDE/rQiD60oRPN6EQvetCaMu9Wv4rmBVG6vfBotKYB/ehNe7rTntY0qAEdafx27LSWjmmf3RHqRo+61Yh+NawLbeBDl7rB5710DVOt23nMOta1/jWjZS1sTgcb0m00k3R1LdwF9VoexY62tKdN7WpbW9jYSVKSkipOO+51D9cOt7jHTe5yEzrb2j4St5Hp7cfewtzwjre8581odKebR+vm55K5IcZw0PvfAA94uO19bxjlO5Lt7jc4BM7whjs80apOtcQnnp2FPPziGGd4xCnOcY5bPOMgD7m5N97xklv64yJPucqnTXKTu3w/Nfl1IQ4Ng3HXXNwUUHXOh7vv/g7ofAI/14nM/0DzF9jc6DgHOs8nFvQSNL3pMZ/1zAl983BX/do71/WSoD6Cpy991TAZuh+K7oKjlz3pfPt61tOcXRN4Xes9P8q3xcAdDtR9BXe3QN6nofBguPsGcw9D4MGw95dthwWFV7p2lPF3fj9VCIP/QuS9kHi9Hx7vl7f84s/SeFn2/QeT70LouVD5rmU+BaUvvVWQMPrdIKPzro9I62Mvi9nTHha2Z8I5MdPM299j91fpve87gk7PB7/4w1dN8SWD/OQ7//ewnwHwKxmZ5/8l+nJZPk2Eb31B7HT6pGl+972P/RiA3/G5X0L6x0+K9bP/IOV/P2ziL//Z/tC//ilwPxX0nxr+S8H/oQGAUCCAlUGA+KcP93eA6WCACqgIDNiA1ZCAEDiBFFiBFniBGJiBGriBHNiBHviBIBiCIjiCJFiCJniCKJiCKriCLNiCLviCMBiDMjiDNFiDNniDOJiDOriDPNiDPviDQBiEQjiErSGBRBiBn3eE7WeEShhGj9eEUBiFUjiFVFiFVniFWJiFWriFXNiFXviFYBiGYjiGZFiGdPGAZmh+TJiGYoCGbHgTa/iGW8B8SSiHmrB9cWiH+4eHdaiHsMSHT+iHb+CGgngChFiIj5CHiGgFh7iIjviIkBiJkjiJlFiJlniJmJiJmriJnNiJnviJDKAYiqI4iqRYikoQAQAh+QQIBgAAACwAAAAA3AEYAYMBM2j/////AAAAAAD/y5v/mQH/mP/+Mp7//wCZmJo0/wEBmP//mJ1oMv8AAAAAAAAE/hDISau9OOvNu/9gKI5kaZ5oqq5s675wLM90bd94ru987//AoHBILBqPyKRyyWw6n9CodEqtWq/YrHbL7Xq/4LB4TC6bz+i0es1uu9/wuHxOr9vv+Lx+z+/7/4CBgoOEhYaHiImKi4yNjo+QkZKTlJWWl5iZmpucnZ6foKGio6SlpqcsAaoBqK0rq6yXsK60J7Oyq7W6I7eWvbvAHL/BxMXGx8jJysvMzc7P0NHS09TV1tfY2drb3N3e3+Dh4uPk5ebn6Onq6+zt7u/w8fLz9PX2TsP3g/mS/PqA/iAF/NdnoCODBPUgTMiwocOHECNKnEixosWLGDNq3AgwFy+P/hyzLFw00kLJkEtOIlI5gSXKIy4LxYz5kgjNmjhz6tzJs6dPbTd/wgsq1B3RouyOIiUJsorSjE8LNqUS9WLVPVd1ZKW4FU/XG18jhl1KtqzZs2jTqg0C65fbtqrWioMbt2VTurHkfsNL4S1cveD42q0rQTDgw4gTK17MuDHasY6XQY6cbDLlY5bPCtjMubPnz6A7wwhNurTn0aZThyaR2azq16dfwJ4tADVt1aynXgZx+7Xt3qV/A1/9kfDuEMNNC08e2wVz0rmNq31Ovbr169izwx7Avbv37+DDix9Pvjz3d9rTq1/Pvj1n8/Djy4+P3r39+/jzh57Pvz//+voF/ijggNf5Z+CB4gFI4IIMNgiadwREKOGEFFZo4YUYZqhhhN6t4+CHIC4I4YYklmgiiR2qE+KKLNo34okwxmhiium0aOON2L0o4448UkgjOukVIOSQRBZp5JFEBonkkkwmqV2TUC7ZmY4XGmDllVhmqeWWXHa55YY/jqNklGQOOWaZZJ6JJpRTdrehl3DGKaeWYHZ3jpprMolnnkjuyaeRbXL35pyEFkqnhmGK4+efTmbHaJOLPlpAoAMMauilhNZ5njmSdurpp6CGKiqZVEqIaZYHpHoAl6quiumFiYYz6qy01mrrrQWUGuGpWLbKqqqnwmonp7gWa+yxyBapKwG8/l7p65bPXirspuUka+212H66bLNWRosqsK9aGCs42ZZr7rlM6vhrqty22+WE436D7rz0lqsutOC6q++V8A5bbb0AB4zrvVp6u6+7/VJLjsAMNxwqwd+ye/C+CQ9wDq0IZKzxxhx37PHGGH8s8sggz0ryySITCfHEcIrXa75ZVoxBgl+0dkTIKOesMc4658xzzyer7KapLMvpsrMwYynzBTR7YbMRPwM9ctRSf0x11R0LLSjRRbcc3ssSH8qhvxU03cXTRVyNdcmjrk2y2m4joHWlXHfd5dHdJs2vhOOazQXaRMQt+OCEF2744TmvbLeV3iXg+OOOexfn0hI0Dvnj/vFOAfgQiHfu+eegh46A4otbfnkCksNJOQCmX565FJsLIfrstNdue8ek29065Kl7ufrumJONRexB3G788cgTnnvXwEfe3eR8k9086sJfQTwQyWev/fYjL0+owVtOz/vzX0YP3umnv44M9+y3n733c4KvpfjBc8dlxfQ7r/Az7vfv/+zwk5P8spQ/6tmvfGM7H/rGtz9n/O+BEDRcAOM0QCwVsHcxM993FshAi0nDcwoIoQhHSMISmnCEIDyhCleIws6x8IUq3NgE91XADpqHg+hTn03o0pe78HAMKYShEEUYxCEKsYhGfKEMh7arxRGwOzhMn3yi6LrqKcEwAPBL/lvIgMQkrrCLXjwhGMNYwiVurYlOvFIN6wcfKnYQCljU4vVmMEYythBxdmRhHfOoADPSDY1pNMAa9ddGNxISjj8sjA//MgY+OvKRkIykJCcpxABWkFCDNKQm3ygNSnryk6AMpSgVYEm9XSqTm9ykDo0xyla68pWwLGEpw8YrVKbSkKssRix3ycteQnKWrmqWLW9JxVwSw5fITKYyZRmeCR3MW8Mk5i2NiYQ5+mCZ2MzmLsXjzH1BE4rSDCcurRgFa/ZAm+hMJyi5Wbd2fZM74oxnFKkJE92oQZ34zKcj2QlId8IsmvIsJjkRKZ01fHIBCE2oQhfK0IYq9KAOjahE/h/qyYlG1EDdzBst21VAWETTo+CUYgNhZ880QNSiKF3oSVPK0pWydAEYrdslTxlSDoIUnsS86QAWSE8jmJMHLn3pRIMq1IgSFaUxBeRMDdXRVXzUqTXlpBV+uoOjFpWhVr0qRSmp1aQyC2kb5VZTVfFUskaVjcMrKRq0yta2uvWtcI3rRMWjSiZ+tXRnFekG51lTuuZwoMaQq2AHS9jCytWv4zzjXXWX1yoqEIetQ6xjPdgMw1r2spjNLEIlK1DFpvGC4ensTtk4vZ62QrOoTa1qi8pZvnrWiaB9LAcjG9q/jhQZq82tbne72cbasJnt/J4pn4hTxzHguMg9bkCj/pjc5JoWFbyNrnQvG9vxZNRQS21dc5G7XBxu97jPPcV0x0teuFaXn4stVHZr+l0GdJeD7Q2vKcpL3/q+9LzA7adwwzo/9n73vQuML2CLYdgGGPjACE6wgheM4AIz+MEQbnBhI5zg+Sh0W2ANZi39u90O8rSx2v2ufEvhYAqbOMElPrGKU0xhCycUwxrV8KlC3GE2fri4k4WcgG97DBarmMI+/jGEg/xgF/dWsdddapxo3FwP23a0etWxiAdMDCILecFWvjKKJ6xiI8PUrkkebqGYnFwnR/nJUt7uiEmh5Ta7+c1wjrOc5/zjZV33YPhF0I0pCw06+/nPgA60oLVs/ufg6ivPB9rzNAbN6EY7+tFuLrR+D+1b0iIIypNdNKQ3zelOP1rS6aVhpQl5aUxLtc+eTrWqVx3p/PZIRgAl5pppwepa2/rWCkbvq2EU62lSeRm4DrawU63rXc9o1ACetSuGzexmM7rYxkYRst+r7FZQGBY/hoGgtR1obhuYtqUOt7jLs41rryLbL9h2uru97m/3ddzwjvevnWFuVaDbBerGN7v17W4cy/vf4y53hLGtYm//2eB+Nji4Ac5wA+1FrYPJCzNKKz0Qz1sDFOeOThU9BKo6DeKKLGgyMs5nkqOA5Bt/8g5F3giEeLwQJp9AzE2Acqji+NRAePnfQJ5F/p4HY+assziPP1Bzs94crR33+XFsYB4ONH0FT7dA1HPgcqUvnQVTnxm5ob51qXed6jzXuV6yzrSvn9zsMke7DarO8qvHgOxeJw/W1R50ue+A7RInxEys7nZd7L3tfS/G3/MeeGQMvvCIh8jhE18ZvvcQ8IyvxeIjb4zJyyTsjqc8LfCueWdwvvPM+DzopSF2xIg+EqU/zOkFkvnRe2D1j0g9YGDv+tC3vvaVvz3uiSH73R+i974PvvCHT/ziG//4yE++8pfP/OY7//nQj770p0/96lv/+tjPvva3z/3ue78hwP9+GcIv/jGQv/xhOD/618/+9rv//fCPv/znT//6s9/D8vbPA/7zf4f9878O/vd/AjiABFiABniACJiACriADLgG6teASQd5EKgQujeBb/CAFqgMGJiBPbCBHHh3FfiBauCBIogDJFiCaxeCKGgGJ7iCM9CCLpgCcZRIMXgGM8hINWiDNIhFOUgGN7hFPegGMBiEr6CCRHg2RniEWzCESmgLSdiEaSWBUDh+TziFTlGFVpiFWriFXNiFXviFYBiGYjiGZFiGZniGaJiGariGLhABACH5BAgGAAAALAAAAADcARgBgwEzaAAxaAAyZ/////8AAAAAAP/Lm/+ZAf+Y//4ynv//AJmYmjT/AQGY//+YnWgy/wT+EMhJq7046827/2AojmRpnmiqhkFACcIqz3Rt33iu73zft6+Yb0gsGo/IpHJpgjGf0Kh0Sq0indasdsvter/gsHhMLpvP6LR6zW673/C4fE6v2+/4vH7P7/v/gIGCg4SFhoeIiYqLjI2Oj5CRkpOUlZaXmJmam5ydnp+goaKjpKWmmAOpA6esVaqrpa+ts1Gysaq0uUu2pLy6v0S+nr7CwMYyxLidyanHzjPMsJzRz9Up1MvKEsXW3R/YoNze4yLiw9rk6eXooubq7xju0+zw9fH09vn6+/z9/v8AAwocSLCgwYMIEypcyLChw4cQI0qcSLGixYsYM2rcyLGjx4/+IEOKHEmypMmTKFOqXMmypcuXMGPKnEmzps2bOHPq3MnzibyeeX5qEgrUDlFU+IruOXqJqdI4Tp9KnUq1qtWrWCVGzbpyK9eUXr+eDCu240+yZSeeTZoW5NpmbU2+lRa3rt27ePPq3ctXjVe0ff39ZRt44WC4hSMeppu4sePHkCNLnjx1LmWthLdlvmzQMueHnj8TIUC6tOnTqFObtqG6tevTrF+rfqVadBHZuFPHzs2bwO7eBGjrtj0EOO/fxl0j5y0cNfHiyWUvj+68RvTmsJ9voM69u/fv4MOLV12gvPnz6NOrX8++vfvyI8fLn0+/vn3e7/Pr368//v3/AAb+KKBx/BVoYIH+Dajgggz+d+CDEK6XYIMUVmghfuYZoOGGHHbo4YcghijiiBqe99GFKKaoImnnkejiizC+aKJHK9Zoo4ItxqjjjjHO2NGNQAZJX448Fmmkhz5yJN4BTDbp5JNQRukkfVJWaeWTVF6ppZTkZTgiAmCGKeaYZJZp5pllkpjkRUtu6eaU870p5wFZzrlll+WRiOaefPZJpprmbdSmnVrWSaiVhh7KZWpEhujno5CmOeKaFg2q6KLyXYponJpielqjIEYqaqSAwqdRp6imquqqrLYaJagbjjpmArQmYGatto4KIqUVuerrr8AG6yqsGsoqJq631irrroH+nirss9BGK+2TxBpgbJjIlpmtqMyamtG04IYrbqrVXgvmtrMqq+uHvFI07rvwxmtlo8nSau69Z3LY7kTy9uvvu/Rqqy6+BIepb7Pf/qvwwsIGTCa6BeN7sLcYMWzxxas6nK69ERc8cQEbrarAyCSXbPLJKJfsa8ost2zyyi7HnLKUGne853rHDjzmxxhIWARgiogs89Aqu0r00QrAjLTMNHtZrM194oytzmLyfIHPwWxmidBLx6x01y1/DfbMrzptLdR8Sn0u1QZv2C7WQwCdCNdjk91q3WEbjbfd1JqNdtrq5czxn24jXAHcPsiNyN6MN+7445BHjnLNf4N53gL+mGeO+Xl8Wi3B5Zpnvu8JoV0i+emop6665JRXDnroC3C+p+cAvB766CaUbsnqvPfu++8nt/637ZrLjibtxItuODKbKf4H8NBHL33jwqOd/ObmdV44xdfHvvwKulcy/fjkl99y9Y9CXGb3xWcvaYnqwQ477vyYb//946Pvp/pksq98eWb6mP+wR7GB4O+ACOSd/vrEvzEN0HsAfJ8B1iO/230vIAnMoAYft0A+NVBMDzTezraHngq2r4ACeRwDVsjCFrrwhTBs4eliSMMaunCGNsxhDFPWwYI98IT5MaH86AeCxezOcTpM4g0lp8QmMgCHTtQhD/1WOQeaR4jz2w/+Fi2Iwtxp7QLO04MKoyhFJpIxh1A8Iw2nmKdYVRGEV9zi/4IoRwKCDHxftEAY8zBGNa7RjH7cISAD+UI2FoBDb4Rjeepox/cwEoJ3VIERK0HISlrykpjMpCZhuMAPPuqHjwylHQ+yyVKa8pSo3GQn2SYqUIrykUTURypnScta2vKFqxycsVz5yjrGMh+3DKYwh2nJXObqWrzs5RZ/aQ9iOvOZ0FzhexBZMHQlU5miZCYHwkeJaHrzm7ScphsJZs04YvOcJtTmBrg5CXC6852ZFOfTyKmza6LTlxcsATslAc9++vOM8jwbPXVpz3suM58k2GckMNmAhjr0oRCNqET+H1rKiVr0ohCtKEY3SsEhUnFturzXA19RUJKak4uRvMEeCcHQjbo0ohp9qUwbENOZQrSjWWzjPBHgyVaetIImXeQrg1qACqpzHYj5REtt6tKaMvWiTn0qTlFKTZAeE18jVUVJtfrTOepgpYNY6lOhusmxbjSqTJ0qEKvKU1busquwI2ov5erRLkIjj5Mwq173yte++vWvE+VlD5EJV5SG8KRq9apAAMvYxjr2sX4V7EeHV1ggHlaojSzsUb0B2c569rOgbYBkdSpQymI2nfHDou0SO8rFhva1sI2tTUd7yHGatqiqTa0QV6tblA5EtsANLnC7xx+2QqqnCLCdA5b+y9zlGlSIzW3uZrsh3Opat7PE3Y9x0+dWReIWc9Fl7nNNGN7lTtca102vevuaXf1sd3/dDZNyyzveCpbXAeetxnr3y9+Ztjc/72VgfC130vvWV373ze8zAPuABjv4wRCOsIQf/NgJW/jCEK4whh/8Xwo7tFxTC+mo5hteIBpVswUur4KdweANuzjCGn6xjB8QYxd32MEPBbFVRZriEs/xxKc1ceYSjFB9tHjGL64xkjGsZAzfuME5NhtbkQu40xr4x3X9Lko1R2S77uPIS2ayY8Ps4iZf+Mk0/rCUbUvlm/U4ukLOqZbjvIAup/QfZM6znvfM5z77Wcbr2XC1Asz+4yBnOUKGbm1B/szoRjv60Y8OtJPX7CHrVXaOiJ6zYhcN6U57+tOghrCkz0zpDlk60YZFNJDvLJBQu/rVsNbzqC08aNtG7LKZ1rSiCRLrXvv6135ez5GOVNBerpgcwE62spdN6vQM20jFfuWxx8Hsals72cJ+No+inc0iB+Ta4A53qLOtbR1xO5TT9gajbQBpdj/a3Q3+b67nTe/0PGTdNWh3vt+973ijuN4AB/i9/wzvRhcc3zTg8L8DzvBMD9zPByd4vw0+cXk3/OIG0k4g/ksBjoPxFeigq5w7vvCE4pUHQNB4CTz+uZJ/HOR0EblvJ8DyEIDVBClX+QhqXnP+CsA8qTIHIslRvdmblyDnOg8Bz12ux5/7nKtEN1zPv3HyHSA96R94Dwe0TvWkDp09PXMPG66O9Q5wXQNn74A40v51xJ2B7GXfANuvJvauM4bmdbfA3M0A97hnYO+Hy7vakwJ4wJOh737PgtET343FM74ajn+8MyIvebNUXTNer7w3Jql5cnC+85u/PAAoD/rSm/70qE+96lfP+ta7/vWwj/0OSC/7eWS+9u+gPe4zofvd+/73wA++8IdP/OIb//jIT77yl8/85jv/+dCPvvSnT/3qW//62M++9qHQ++3jofveN4row88I8JN/DQo9PyHSr35BsL/9gHg//OdP//rW2//+Zfn8639+d9v3f/C3x3r81w6iZ36OMYChoH+uh4D414AO+IAQeIDNM34RiH4TGIAVeAfyl4FwsIEcKH4Y2AgG2HojeAYluHonWAYpmHorOAYt+IFW8IIwSAUyOINSUIM2yH0UmIM82IM++INAmIBONwHRgINBaHIw93RAN4RHaIJMOHoh94RNSAYMCIVLmIRTmIVauIVc2IXxt4NeKAZGGIYqBYZk+AVjeIY0kIZqyDwh2IZ+YYZwqAVsOId2eId4mId6uId82Id++IeAGIiCSH0RAAAh+QQIBgAAACwAAAAA3AEYAYMBM2j/////AAAAAAD/y5v/mQH/mP/+Mp7//wCZmJo0/wEBmP//mJ1oMv8AAAAAAAAE/hDISau9OOvNu/9gKI5kaZ5oqq5s675wLM90bd94ru987//AoHBILBqPyKRyyWw6n9CodEqtWq/YrHbL7Xq/4LB4TC6bz+i0es1uu9/wuHxOr9vv+Ly+G+gH9oCBgjZ+f4OHiIklhYqNjo8WjJCTlIOSlZhpl5kVm5yfYZ6goqClW6ScqKarVaqsr7BTrrG0tUmztrm6P7i7vr81vXuFm8XEfcDJLcfIE8yGgs8UxsfK1inSzsyH2RLUxNfhi9va1Zbk3n7T6OLtHt0A8O7z9OvN9fj5ner6/fnC/gLqAuiIoEB/BhUlPPiP36qFDOtB5OYwokV70ExNvMjx0caO/iARfQxJEtDIkihTqlzJsqXLlzBjypxJs6bNmzhz6tzJs6fPn0CDCh1KtKjRo0iTKl3KtKnTp1BvnIzaZmq0ilRFYmVlNaumrQ/BejUpNtO3sXrOjqrYFS0ftmUhqXVrZ24quPfo0rFbqq3eUHE/+f37ZXAew4S5IL6zOHGWxsogO24qefLSypaTYs7MubPnz6BDix5NurTp06hTq149FOJm1iZev3EdGLYQ2W5o57WNBHfV2hh88/4gfLjx48iTK1/OvLnz59CjS38poLr169iza78OY7v379i7gy8EPvyL8ui1H0/P3rr49unfeyfPXj588Ovvo7evfzv/7PTF/ndef/gZR2CBLhz43X/YBbjfgAqqZ2CEFFZo4YUYZpjeABx26OGHIIYo4ogklsjhURqmqOKKLLZonYkwxihjjCi6aOONOOa43Yw89shjjToGKeSQF/po5JEiAknkkkw2qZ2HBEQp5ZRUVmnllVhmqWWUHg7l5JdgLgnllmSWaSaZXQoV5pps2jjmmXDGaWaaQbVp550YvinnnnxSSSdQBQQq6KCEFmrooCkequiihCbK6KOHOhqonlcaYOmlmGaq6aacdrrpln/uBOmojWpI6qkFSIrqo6pSaqWnsMYqq6agdvjTqqOqiquiuu5qaKsdbjnrsMR+qmWoOvnKaK/K/iJqarORPjtpsFoWa22xtZ7oE7Tcduvtt+CGa6irUV6b6QHoHsBpuupeeyWyOYkr77z01isuuQSYiym766Zr7ru2bmvvwAQXbDCh+Op7Kb+bMmwtwNr2dPDEFFfcbcIKG+Dwuf66ayW8OFks8sgkL6pnv+hmrHKnU4J8U8kwxyzyyQ13vPLNl7YcsMQy9+yzvTRrujHOK+scMU8/J630t0FznDLROBs9wE8IVG311VhnrfXV8m7t9ddYdw322FuLXXXTUG8qIsrt0irln0luUFwlZNcdtrh2542A2XqPzTfaaWe6ds1Pu83lzgDErcHclPRdN9+Oew155Fr/TW25/oFzOrjQNmcqNQWKZ8D4JJSDPXnpXOONetmqn315vpmrHSLbnH4+QejBAYfP6rz37vvvwAevNeBpe5jA8cgf7yGxUhufPPIukyT89NRXb73wxEPt/PMJLD9s8x1yrzziK11v/vnop5919kRv/7z3s4LPofjdk6+S+vjnr3/v7OPsfvLwk5X8BkC/6IVkfwhMoAK/1r9ZDe1S/xNfAGv3tvDRD3r2S8kCN8hBBDZQVg+0VAS5N0FjHW5+Fxzf0crXwRa68HofjFUIDTDC93UoVlJLoQqn5pIX+vCHv4shrGZYQwDeEFY51KEBQaKAJjrxiVCMohSfOL0pWvGKUKwi/ha3OMWxzehqTxSiwoooQRnp0IYrJI7ufsHFNmZReG6MowK0KEcuelFGYHSiGPVFRhKa8YwYTOM71uiLOraRjoa8IiIT2UWwfdFqYXxd7CBoQUDWL0aW3CEJRrcHRmJxkZ58Y/BCacU7xiiPTdyjufqIRhhl8pI8FAEn9UDKWtrylrjMpRVZOaMpybBzxGLlK4cZyFiyRJfITKYylzlFXsrIl0ME5rCEScxhLrEjzMymNrfpSWfGCJqemmGsqFnNTF6TI9xMpzrXGUVvwgicnRInrMhZTkCe8yLszKc+symiV4oInipjFz3rWc17CmSfCE3oLftpzhABNGMCrSRB/idawAwyUaEYzagcGWrJf0qJaBFFIUVH2sqVaPSkKN1liPzp0I/iLKQEJKlMNamSBdj0pjjNqU53itNk8vSnQM2pT4NKVJ7GcUZG5BA85TkrVhZioMh7qkSTasxZOqKoWBUqMrPK1QUMtatFPeofd7hUaVrLqX6A6vGkKtKSliMjEQErVr8qV6DSta5GdSNSi1nWwvFxquJja0yJKdiKHs2qjcBrUO+qWK3qsrE/FSsm+epSSzFVVmjtg1oTUNgyHpaQ84CsaEdL2tKa1rQmeujN3OlOqtbQoAE5rWxnS9valja1ldUeYP0IojO6j6NuTYlth0vc4hr3prjFXPF2/tvK1hbztRbtyHGnS93qKja5sFtuWw37Id9KFLhUXYl1x0ve8mJVlQszKw0lyoD2ure9M6Xfe98LW3+Y9774vS96Late983XvfEV33/bW99+5PfACD7ufjXWX/YOOMDcGzADCqyPBFv4wrJdMBEd/F8IP0/CFM5HA0ZM4hKb+MQoLvFsU8ziFpt4xS6OcYphPGKM8devweTwfKnK3R4jD8TR5YiMh/xi2RL5yA2gMZJjrGQbMxjH09Txe3ns2cG2MnlAFiRIljxkJXOZxV7+Moqb/Lq+tq1Y/n1wMX3MWytn2ZglEbOLwyxnFRu5zjO+c43LnNvLak7KAF5zldmc/oA3rwTPiE60ohfN6EaT2KNZah9zXYskK4fXJY7OtKY3zWlFQxpLkt5ulStt6WK+pNOoTrWqV71nEAnLf5N+bqW5e2pW2/rWuBbzpysFa1G3mdS0xnSuh03sYjegl32C02bLGWKGGPvZ0E41spM9p1gHuNkHiba2t83oaVMbTdaOL7YFwu1ym/vL3v72scI903HvJNMwgPcL8MxaUtv73rijirxdsO8W0Dvc+A64wN3tk36zwOAr+LevmzvwhiPJLQhXQcRToPBS/9rhGO/RdAABXQ51ts3y2EDHjTnyjSti5B9vZcg1UPLbMZfgJkcDytP68g6tPAMtl0DOYy6I/plrtuYeZwcHdr5znnO8RENH+gpMhAGmG73nSmd51FPgdAtU/el7uHrTp44CrbucRFgPhNetzvUTjD1xZQ97WHaj9p4gtu2RAS3cX/L2uf+i7h3Au91lIffb9H3vjPk7EPQOeCgQfnGCL7ziF8/4xjv+8ZCPvOQnT/nKW/7ymM+85jfP+c57/vOgD73oR0/60pv+9KhPvepXz/rWu/71sI+97GdP+9rb/va4z73uF394tfdeMYk//e9PEXzTD18Lxzd68rGwfOfgovlOgD5znl98PEh/OdRneyWur5zsw3X34A+/+MdP/k2y4xvcJ41uvp+W8+MFHKRfP0XMkY68yty88/I/B/3j8f70jyb/5ReAAjiABFh+/ncc3tcX1cd5CbgW2ud6DSgYC7h5EXgXDzh/7EcUB/gEG+gDHQgLH8gEIbgDI7h2GaiAF6h/JygUJYgSFViAKsgBLQiDMvCCNEgWKVh/K3iDPNiDPviDQBhzABiEs/F3M0iEIDCESMgGSriETviEUBiFUjgWNjiFa1CFVvgVOch/W5iFY4CFXpgbExiGYnCEZKgCZniGKJCGatiGbviGcBiHcjiHdFiHdniHeJiHeqh2EQAAIfkECAYAAAAsAAAAANwBGAGDATNo/////wAAAAAA/8ub/5kB/5j//jKe//8AmZiaNP8BAZj//5idaDL/AAAAAAAABP4QyEmrvTjrzbv/YCiOZGmeaKqubOu+cCzPdG3feK7vfO//wKBwSCwaj8ikcslsOp/QqHRKrVqv2Kx2y+16v+CweEwum8/otHrNbrvf8Lh8Tq/b7/i8PhfoB/aAgSB+f4IhhIaJihSIix2NjpF7kJIYlJWYc5eZG5ucn2OeoBaio6ZbpacAqaqtU6ymsK6zTbK0t7i5uru8vb6/wMHCw3q2xMedhH6MyxPKzafGyNOkz4USlNbXsdDU3h7azH3iyq3S39Thzt3q6O7v8PHy8/T19vf4u+f53/uV/vymAYw0MCCxgosQGgymEE/Dhcge2pEIcRhFOhcrAssoh6PGXv4eP4ocSbKkyZMoU6pcybKly5cwY8qcSbOmzZs4c+rcybOnz5+hugHlNk5XyKFvjk4UivST0jpPm6qJqompVExUO1q9KilrHK9cgxbNBTZsmLJm2q2yZjaPWrUE2a571tahXGx3u+aFW1cr3bnlsO7N29dvYLx/o20tHAhtG8eMsUBeMzlylcppMFuWovlM581PPpcRDZoJabHbSk9arOq0aiSuX8ueTbu27du4c+vezbu379/Ag1cbKzwza8XEi3s+TjS18tHMR8V+HmM69evYs2vfzr279+/gw4sfT96CgPPo06tfzx4G+/fw37uPTz/+/Pr41YvPn/8+//4v/P73n38C0rdfgfARiKB8AS5oYIMOJhhehOspSCF6Fl4oQIYXHqjhhyCGKOKIJK43wIkopqjiiiy26OKLMJ44VIk01mjjjTXGqOOOPO44I45ABinkkO/1aOSRRv5I5JJMNhkiklBG2aKSTlZp5ZXspUjAllx26eWXYIYp5phkbpliT1imqWaVWpbp5ptwunkmT2vWaSeQbcap555wzrnTnYAGKmKefBZqqJd+6lTAoow26uijkJYI6aSUTipppZhWeumjhIZpwKeghirqqKSWaiqpZSZaU6asMrppq7C+CiursjLaKZin5qrrrqOmimJOs2Zaa7CUDktspCROeuuXvP426yyqZKpK07HFJkstpsZe66q1nKJY5rPgPuurjDhpa+656Kar7rrXLktAuKIeIO8Bpc5Lb7hhSjsTu/z26++/AEPqLryh2lvvvPDm+2u5ATfs8MMQVzowwZ8aTKrF4CpM7k0Rd+zxx/xOTDHG8SKML5j6ygTyyiy33CqhB8tL8agtJsxlolOy5PLOPO8M88UmzwxqzSebubAEOa/U89JMR/zzqCQLTXTGNx8NQNIqNa311v0+XbLMQg/Nos1Gb3w1iy0hoPbabLft9tv+vi333HLHTffddNvtttdhk5piAoAHDniKBQctapctCi54yh/h7fjaej8ueeSSO0752v589y3q34oPjmLhYPda9Yqde252SZXjfXnqc6/OOtz9yp255mKfWHoChIMaNaiIs3g74xq93nrswt/tevGQE7+3t1zSXirnnedeseGh9k566cBXhPz23Hfv/ffgFz+789DfjvvnuVo/gPmBZw9R+PDHL//89L89Pu3l/47+qeqzb/oAKamfAAdIwALe7X6ayx/29meq/vnPfQsxoAQnSEH4IbBvCoweA0vlQPZB0CAVDKEIJdgivF1wV7v7VAbN1yP/Ke6DARmhDGcovxIekHlbEloKDbBC/e3IhYuzGupoSMQiIs+GdDuhrnbYwwX+EIj/C6ARp0hFxyFxbkrMFf4TUQTF/8Woi+c7HUkUQMYymvGMaEyj/NLIxjaycY1ujKMbK7fCFLExixRrIhj3+EIhjlGOgCQjHANJSAUMspCApCMXnTiAO+LwXc6j2SL5SEkW+nEkiIzjITM5x/hxMpGSqyOKHHmiLkVSkrarpCo1KEZMflKNnnxlJ+Eny1lacZJ9PBEpB2DKU4ZKj6vsIgz5UctiGvOYyEwmJ0W5o16eaofPw2Uwp5lLAP5RmdjMpja3SUhm6siZpoKm36RJzXIOsx7cTKc614lNb8YInDG7F6+AWU4+npMe7MynPvcZSHfCCJ5AC92u6FlPMN5zHvxMqEIXSkaC/g+gI5sXMP4J4VDFUZScUbwmQzfKUW1WFI8olChGLeqHigruoqlkpTVd2dGWurSYH30k7ew10ZKO1IUoXR8jS/LSnvoUkTEtZfM0R9ObBi6nlUTqTkmygKY69alQjapUtSnVqlq1qlS9qlavClPfMRKc4pynUb041jDqlKwprWZJtspWp2a1rXBdwFvjytauXk+lYKVeuICZuAfisq8qXStduZrNwbZ1roa1ql1V5ENeDnV6AoUXX73qwb9SVq1MTexUC6tZwmKzs559JWCrmdfI7rWso21sEO+K2ZGA9rWwja1sZ0vbqL7zseTDJQN2y9vdFvR2ve3tQeVR2+Ia97jIne1tc/54yvIFl7e/Ld1zdzvceCT3utjNrnadulxIRtK5041u56bLgOrCY7voTa96O9tdX4L3ueJVHHnN+4712ve++G0rSEEnz83pNrztG6k3BTffS0IkvwhOMIL3qzu9qvC/8A1wWld71moSeLr0dYeCN8zh7TIYsv39JYSDS2HVMvLCz80wOjrM4hYX98MG2GJayVviE9sYcAVuJUQawOMe+/jHQA6ycYNM5CITechGTrKRkQxkkcXYwc+arJS8mRIlW7nHTL6ylrOsZStzucdODutAUTtlKqOky0r+MpqLrOY1C7m4RA4zlJ0l5TJXmMJVdvOR4aznJLe5z1jmc5MfWf7aEJ92wowsc2PzDOhGO/rRkI50pAmh5BZ9q7llLaiK6SHpTnv606CGNKWTbGkyuTfT9dz0PELN6la7+tUNGLWRSz2mUyM6vhldCax3zeter1nWRaa1mGx9Z1znWiW+Traydw1sIisVrY49VKHszKOYLPva2PZ0s4P8bLO6S9pyoraOrJ3tcptbz9sGcreFDe44iXvcMDm3vOet5HT/eN0sajef3h0jxoAaBv9+gaTrzO+CuwjPrwm4CxTegoGT2eAQv6yqdcJwFlR8BQ6/dTUjzvEKTzwnF1dByFOQ8WKrtOMRR3h5qpKcDZgZaQI2MAhefjaNf3zlV5AGzWlOgv6dx1zHOKdMdCbgc5vL/ANFN7lZg26Ymf98pTVXeoaTvmimR6LfF8C6CrSeAa5bPRFeJzqMWBB2C5T964A4+9l7PnaXtx3tYH97BdY+ArrD/EVw/wpzrKMCvuedD3sfuhX8/vcbwILwJ0B84WlweMFfxvGLN07LxZANyEceNWio/OQvzwbFp0DzzuF85y0/eHaQXvQj8Tzqb6H61c+i9a43x+ljT/va2/72uM+97nfP+977/vfAD77wh0/84hv/+MhPvvKXz/zmO//50I++9KdP/epb//rYz772t8/97nv/++APv/jHT/7qw/7r56dC+pm+fs7Mfvrtj0L8Vz7/0N28X/r1d0L+x7N/09w/+v23BAEIHgMYBG9BGPA3GImhFwvIF/ingIfBgBHogAAIgQWIAwe4gNSXgREoHf8HfRd4BCHIHSNYBCWoHSc4BCmIHStogB/4fC0IBDH4HDPoAzVYHDfIAzkYHDt4Dz1YfjL4gkAYF5s3hLjwg0aYhEq4hEzYhE74hFAYhVI4hU5xekhIhRcAEFeIhRWghULIhahghV8IhmRYhmZ4hmiYhmq4hmzYhm6oAVv4huAwhnKIeXUoCHF4h3q4h3zYh374h4AYiII4iIRYiIZ4iGkYAQAh/g5hdXRvbWF0dGljX2luYwA7;" vertex="1" parent="1">
          <mxGeometry x="140" y="260" width="476" height="280" as="geometry" />
        </mxCell>
      </root>
    </mxGraphModel>
  </diagram>
  <diagram id="IKHJQPL00-zeUPr5JE77" name="Page-2">
    <mxGraphModel dx="703" dy="450" grid="1" gridSize="10" guides="1" tooltips="1" connect="1" arrows="1" fold="1" page="1" pageScale="1" pageWidth="827" pageHeight="1169" math="0" shadow="0">
      <root>
        <mxCell id="zi7oQwk1dlJgJgs3s4_d-0" />
        <mxCell id="zi7oQwk1dlJgJgs3s4_d-1" parent="zi7oQwk1dlJgJgs3s4_d-0" />
        <mxCell id="NYpiLePEEY_ZJVSS0s8k-0" value="" style="html=1;whiteSpace=wrap;shape=isoCube2;backgroundOutline=1;isoAngle=15;fontFamily=Times New Roman;fontSize=13;" vertex="1" parent="zi7oQwk1dlJgJgs3s4_d-1">
          <mxGeometry x="10" y="10" width="20" height="20" as="geometry" />
        </mxCell>
        <mxCell id="NYpiLePEEY_ZJVSS0s8k-1" value="file" style="text;html=1;strokeColor=none;fillColor=none;align=center;verticalAlign=middle;whiteSpace=wrap;rounded=0;fontFamily=Noto Sans;fontSize=13;fontSource=https%3A%2F%2Ffonts.googleapis.com%2Fcss%3Ffamily%3DNoto%2BSans;" vertex="1" parent="zi7oQwk1dlJgJgs3s4_d-1">
          <mxGeometry x="40" y="10" width="60" height="30" as="geometry" />
        </mxCell>
        <mxCell id="NYpiLePEEY_ZJVSS0s8k-2" value="git" style="text;html=1;strokeColor=none;fillColor=none;align=center;verticalAlign=middle;whiteSpace=wrap;rounded=0;fontFamily=Noto Sans;fontSize=13;fontSource=https%3A%2F%2Ffonts.googleapis.com%2Fcss%3Ffamily%3DNoto%2BSans;" vertex="1" parent="zi7oQwk1dlJgJgs3s4_d-1">
          <mxGeometry x="80" y="10" width="60" height="30" as="geometry" />
        </mxCell>
        <mxCell id="NYpiLePEEY_ZJVSS0s8k-3" value="all" style="text;html=1;strokeColor=none;fillColor=none;align=center;verticalAlign=middle;whiteSpace=wrap;rounded=0;fontFamily=Noto Sans;fontSize=13;fontSource=https%3A%2F%2Ffonts.googleapis.com%2Fcss%3Ffamily%3DNoto%2BSans;" vertex="1" parent="zi7oQwk1dlJgJgs3s4_d-1">
          <mxGeometry x="120" y="10" width="60" height="30" as="geometry" />
        </mxCell>
        <mxCell id="NYpiLePEEY_ZJVSS0s8k-4" value="passon" style="text;html=1;strokeColor=none;fillColor=none;align=center;verticalAlign=middle;whiteSpace=wrap;rounded=0;fontFamily=Noto Sans;fontSource=https%3A%2F%2Ffonts.googleapis.com%2Fcss%3Ffamily%3DNoto%2BSans;fontSize=13;" vertex="1" parent="zi7oQwk1dlJgJgs3s4_d-1">
          <mxGeometry x="160" y="10" width="60" height="30" as="geometry" />
        </mxCell>
        <mxCell id="NYpiLePEEY_ZJVSS0s8k-5" value="" style="html=1;verticalLabelPosition=bottom;labelBackgroundColor=#ffffff;verticalAlign=top;shadow=0;dashed=0;strokeWidth=1;shape=mxgraph.ios7.misc.iphone;fontFamily=Noto Sans;fontSource=https%3A%2F%2Ffonts.googleapis.com%2Fcss%3Ffamily%3DNoto%2BSans;fontSize=13;gradientDirection=south;gradientColor=#FFFFFF;fillColor=#FFFFFF;" vertex="1" parent="zi7oQwk1dlJgJgs3s4_d-1">
          <mxGeometry x="120" y="60" width="250" height="490" as="geometry" />
        </mxCell>
        <mxCell id="NYpiLePEEY_ZJVSS0s8k-6" value="" style="html=1;verticalLabelPosition=bottom;labelBackgroundColor=#ffffff;verticalAlign=top;shadow=0;dashed=0;strokeWidth=2;shape=mxgraph.ios7.misc.keyboard_(letters);sketch=0;fontFamily=Noto Sans;fontSource=https%3A%2F%2Ffonts.googleapis.com%2Fcss%3Ffamily%3DNoto%2BSans;fontSize=13;fontColor=default;fillColor=default;gradientColor=none;gradientDirection=south;" vertex="1" parent="zi7oQwk1dlJgJgs3s4_d-1">
          <mxGeometry x="140" y="350" width="220" height="130" as="geometry" />
        </mxCell>
        <mxCell id="NYpiLePEEY_ZJVSS0s8k-11" value="" style="html=1;strokeWidth=1;shadow=0;dashed=0;shape=mxgraph.ios7ui.appBar;fillColor=#ffffff;gradientColor=none;sketch=0;hachureGap=4;pointerEvents=0;fontFamily=Architects Daughter;fontSource=https%3A%2F%2Ffonts.googleapis.com%2Fcss%3Ffamily%3DArchitects%2BDaughter;fontSize=20;fontColor=default;" vertex="1" parent="zi7oQwk1dlJgJgs3s4_d-1">
          <mxGeometry x="140" y="140" width="210" height="15" as="geometry" />
        </mxCell>
        <mxCell id="NYpiLePEEY_ZJVSS0s8k-12" value="CARRIER" style="shape=rect;align=left;fontSize=8;spacingLeft=24;fontSize=4;fontColor=#aaaaaa;strokeColor=none;fillColor=none;spacingTop=4;sketch=0;hachureGap=4;pointerEvents=0;fontFamily=Verdana;fontSource=https%3A%2F%2Ffonts.googleapis.com%2Fcss%3Ffamily%3DArchitects%2BDaughter;html=1;" vertex="1" parent="NYpiLePEEY_ZJVSS0s8k-11">
          <mxGeometry y="0.5" width="50" height="13" relative="1" as="geometry">
            <mxPoint y="-6.5" as="offset" />
          </mxGeometry>
        </mxCell>
        <mxCell id="NYpiLePEEY_ZJVSS0s8k-13" value="11:55PM" style="shape=rect;fontSize=8;fontColor=#aaaaaa;strokeColor=none;fillColor=none;spacingTop=4;sketch=0;hachureGap=4;pointerEvents=0;fontFamily=Verdana;html=1;fontSource=https%3A%2F%2Ffonts.googleapis.com%2Fcss%3Ffamily%3DArchitects%2BDaughter;" vertex="1" parent="NYpiLePEEY_ZJVSS0s8k-11">
          <mxGeometry x="0.5" y="0.5" width="50" height="13" relative="1" as="geometry">
            <mxPoint x="-25" y="-6.5" as="offset" />
          </mxGeometry>
        </mxCell>
        <mxCell id="NYpiLePEEY_ZJVSS0s8k-14" value="98%" style="shape=rect;align=right;fontSize=8;spacingRight=19;fontSize=6;fontColor=#aaaaaa;strokeColor=none;fillColor=none;spacingTop=4;sketch=0;hachureGap=4;pointerEvents=0;fontFamily=Verdana;fontSource=https%3A%2F%2Ffonts.googleapis.com%2Fcss%3Ffamily%3DArchitects%2BDaughter;html=1;" vertex="1" parent="NYpiLePEEY_ZJVSS0s8k-11">
          <mxGeometry x="1" y="0.5" width="45" height="13" relative="1" as="geometry">
            <mxPoint x="-45" y="-6.5" as="offset" />
          </mxGeometry>
        </mxCell>
        <mxCell id="FFCebalQslf_H_hJHQxB-0" style="edgeStyle=none;rounded=0;orthogonalLoop=1;jettySize=auto;html=0;exitX=0.75;exitY=1;exitDx=0;exitDy=0;entryX=1;entryY=0.75;entryDx=0;entryDy=0;fontFamily=Verdana;fontSource=https%3A%2F%2Ffonts.googleapis.com%2Fcss%3Ffamily%3DArchitects%2BDaughter;fontSize=13;fontColor=default;" edge="1" parent="NYpiLePEEY_ZJVSS0s8k-11" source="NYpiLePEEY_ZJVSS0s8k-13" target="NYpiLePEEY_ZJVSS0s8k-13">
          <mxGeometry relative="1" as="geometry" />
        </mxCell>
        <mxCell id="NYpiLePEEY_ZJVSS0s8k-15" value="" style="html=1;verticalLabelPosition=bottom;labelBackgroundColor=#ffffff;verticalAlign=top;shadow=0;dashed=0;strokeWidth=2;shape=mxgraph.ios7.misc.left;strokeColor=#0080f0;fontFamily=Noto Sans;fontSource=https%3A%2F%2Ffonts.googleapis.com%2Fcss%3Ffamily%3DNoto%2BSans;fontSize=13;fontColor=default;fillColor=default;gradientColor=none;gradientDirection=south;" vertex="1" parent="zi7oQwk1dlJgJgs3s4_d-1">
          <mxGeometry x="147" y="160" width="6" height="12" as="geometry" />
        </mxCell>
        <mxCell id="NYpiLePEEY_ZJVSS0s8k-16" value="" style="html=1;verticalLabelPosition=bottom;labelBackgroundColor=#ffffff;verticalAlign=top;shadow=0;dashed=0;strokeWidth=2;shape=mxgraph.ios7.misc.expand;fillColor=#c0c0c0;fontFamily=Noto Sans;fontSource=https%3A%2F%2Ffonts.googleapis.com%2Fcss%3Ffamily%3DNoto%2BSans;fontSize=13;fontColor=default;" vertex="1" parent="zi7oQwk1dlJgJgs3s4_d-1">
          <mxGeometry x="233" y="155" width="24" height="6" as="geometry" />
        </mxCell>
        <mxCell id="NYpiLePEEY_ZJVSS0s8k-17" value="" style="shape=rect;fillColor=#F7F7F7;strokeColor=none;fontFamily=Noto Sans;fontSource=https%3A%2F%2Ffonts.googleapis.com%2Fcss%3Ffamily%3DNoto%2BSans;fontSize=13;fontColor=default;html=1;" vertex="1" parent="zi7oQwk1dlJgJgs3s4_d-1">
          <mxGeometry x="140" y="330" width="210" height="20" as="geometry" />
        </mxCell>
        <mxCell id="NYpiLePEEY_ZJVSS0s8k-18" value="iMessage" style="html=1;strokeWidth=1;shadow=0;dashed=0;shape=mxgraph.ios7ui.marginRect;rx=3;ry=3;rectMarginLeft=25;rectMarginRight=25;rectMarginTop=3;rectMarginBottom=3;fillColor=#FBFBFB;strokeColor=#B3B3B3;fontColor=#B3B3B3;align=left;spacingLeft=29;fontSize=8;fontFamily=Noto Sans;fontSource=https%3A%2F%2Ffonts.googleapis.com%2Fcss%3Ffamily%3DNoto%2BSans;" vertex="1" parent="NYpiLePEEY_ZJVSS0s8k-17">
          <mxGeometry width="210" height="20" as="geometry" />
        </mxCell>
        <mxCell id="NYpiLePEEY_ZJVSS0s8k-19" value="" style="strokeWidth=1;strokeColor=#F7F7F7;fillColor=#666666;shape=mxgraph.ios7.icons.camera;fontFamily=Noto Sans;fontSource=https%3A%2F%2Ffonts.googleapis.com%2Fcss%3Ffamily%3DNoto%2BSans;fontSize=13;fontColor=default;html=1;" vertex="1" parent="NYpiLePEEY_ZJVSS0s8k-17">
          <mxGeometry y="0.5" width="15" height="9" relative="1" as="geometry">
            <mxPoint x="5" y="-4.5" as="offset" />
          </mxGeometry>
        </mxCell>
        <mxCell id="NYpiLePEEY_ZJVSS0s8k-20" value="" style="strokeColor=none;fillColor=#666666;shape=ellipse;fontFamily=Noto Sans;fontSource=https%3A%2F%2Ffonts.googleapis.com%2Fcss%3Ffamily%3DNoto%2BSans;fontSize=13;fontColor=default;html=1;" vertex="1" parent="NYpiLePEEY_ZJVSS0s8k-17">
          <mxGeometry x="1" y="0.5" width="14" height="14" relative="1" as="geometry">
            <mxPoint x="-19" y="-7" as="offset" />
          </mxGeometry>
        </mxCell>
        <mxCell id="NYpiLePEEY_ZJVSS0s8k-21" value="" style="strokeColor=#F7F7F7;fillColor=none;shape=mxgraph.ios7.icons.microphone;strokeWidth=1;fontFamily=Noto Sans;fontSource=https%3A%2F%2Ffonts.googleapis.com%2Fcss%3Ffamily%3DNoto%2BSans;fontSize=13;fontColor=default;html=1;" vertex="1" parent="NYpiLePEEY_ZJVSS0s8k-20">
          <mxGeometry x="0.5" y="0.5" width="4" height="10" relative="1" as="geometry">
            <mxPoint x="-2" y="-5" as="offset" />
          </mxGeometry>
        </mxCell>
        <mxCell id="NYpiLePEEY_ZJVSS0s8k-22" value="" style="verticalLabelPosition=bottom;verticalAlign=top;html=1;shadow=0;dashed=0;strokeWidth=1;shape=mxgraph.android.phone2;strokeColor=#c0c0c0;fontFamily=Noto Sans;fontSource=https%3A%2F%2Ffonts.googleapis.com%2Fcss%3Ffamily%3DNoto%2BSans;fontSize=13;fontColor=default;fillColor=#FFFFFF;gradientColor=#FFFFFF;gradientDirection=south;" vertex="1" parent="zi7oQwk1dlJgJgs3s4_d-1">
          <mxGeometry x="400" y="70" width="250" height="470" as="geometry" />
        </mxCell>
        <mxCell id="NYpiLePEEY_ZJVSS0s8k-23" value="" style="verticalLabelPosition=bottom;verticalAlign=top;html=1;shadow=0;dashed=0;strokeWidth=1;shape=mxgraph.android.keyboard;sketch=0;fontFamily=Noto Sans;fontSource=https%3A%2F%2Ffonts.googleapis.com%2Fcss%3Ffamily%3DNoto%2BSans;fontSize=13;fontColor=default;fillColor=#FFFFFF;gradientColor=#FFFFFF;gradientDirection=south;" vertex="1" parent="zi7oQwk1dlJgJgs3s4_d-1">
          <mxGeometry x="410" y="340" width="230" height="130" as="geometry" />
        </mxCell>
        <mxCell id="NYpiLePEEY_ZJVSS0s8k-24" value="" style="verticalLabelPosition=bottom;verticalAlign=top;html=1;shadow=0;dashed=0;strokeWidth=2;shape=mxgraph.android.navigation_bar_1_landscape;fillColor=#1A1A1A;strokeColor=#999999;sketch=0;fontFamily=Noto Sans;fontSource=https%3A%2F%2Ffonts.googleapis.com%2Fcss%3Ffamily%3DNoto%2BSans;fontSize=13;fontColor=default;" vertex="1" parent="zi7oQwk1dlJgJgs3s4_d-1">
          <mxGeometry x="410" y="470" width="230" height="30" as="geometry" />
        </mxCell>
        <mxCell id="NYpiLePEEY_ZJVSS0s8k-25" value="" style="strokeWidth=1;html=1;shadow=0;dashed=0;shape=mxgraph.android.statusBar;align=center;fillColor=#000000;strokeColor=#ffffff;fontColor=#ffffff;fontSize=10;sketch=0;fontFamily=Noto Sans;fontSource=https%3A%2F%2Ffonts.googleapis.com%2Fcss%3Ffamily%3DNoto%2BSans;" vertex="1" parent="zi7oQwk1dlJgJgs3s4_d-1">
          <mxGeometry x="410" y="110" width="230" height="15.83" as="geometry" />
        </mxCell>
        <mxCell id="NYpiLePEEY_ZJVSS0s8k-26" value="" style="strokeWidth=1;html=1;shadow=0;dashed=0;shape=mxgraph.android.action_bar_landscape;fillColor=#1A1A1A;strokeColor=#c0c0c0;strokeWidth=2;fontColor=#FFFFFF;fontFamily=Noto Sans;fontSource=https%3A%2F%2Ffonts.googleapis.com%2Fcss%3Ffamily%3DNoto%2BSans;fontSize=13;" vertex="1" parent="zi7oQwk1dlJgJgs3s4_d-1">
          <mxGeometry x="410" y="310" width="230" height="30" as="geometry" />
        </mxCell>
      </root>
    </mxGraphModel>
  </diagram>
  <diagram id="ULkTcuLI3G4vBdfBeVqp" name="Page-3">
    <mxGraphModel dx="703" dy="450" grid="1" gridSize="10" guides="1" tooltips="1" connect="1" arrows="1" fold="1" page="1" pageScale="1" pageWidth="3300" pageHeight="4681" math="0" shadow="0">
      <root>
        <mxCell id="fPFpeFuaGCxw3wDNmw1L-0" />
        <mxCell id="fPFpeFuaGCxw3wDNmw1L-1" parent="fPFpeFuaGCxw3wDNmw1L-0" />
        <mxCell id="fPFpeFuaGCxw3wDNmw1L-2" value="" style="strokeColor=#666666;html=1;verticalLabelPosition=bottom;labelBackgroundColor=#ffffff;verticalAlign=top;outlineConnect=0;shadow=0;dashed=0;shape=mxgraph.rackGeneral.container;fillColor2=#f4f4f4;container=1;collapsible=0;childLayout=rack;allowGaps=1;marginLeft=33;marginRight=9;marginTop=21;marginBottom=22;textColor=#666666;numDisp=ascend;fontFamily=Verdana;fontSource=https%3A%2F%2Ffonts.googleapis.com%2Fcss%3Ffamily%3DArchitects%2BDaughter;fontSize=13;fontColor=default;fillColor=#FFFFFF;gradientColor=#FFFFFF;gradientDirection=south;" vertex="1" parent="fPFpeFuaGCxw3wDNmw1L-1">
          <mxGeometry x="80" y="210" width="250" height="270" as="geometry" />
        </mxCell>
        <mxCell id="fPFpeFuaGCxw3wDNmw1L-3" value="" style="strokeColor=#666666;html=1;verticalLabelPosition=bottom;labelBackgroundColor=#ffffff;verticalAlign=top;outlineConnect=0;shadow=0;dashed=0;shape=mxgraph.rack.general.server_1;fontFamily=Verdana;fontSource=https%3A%2F%2Ffonts.googleapis.com%2Fcss%3Ffamily%3DArchitects%2BDaughter;fontSize=13;fontColor=default;fillColor=#FFFFFF;gradientColor=#FFFFFF;gradientDirection=south;" vertex="1" parent="fPFpeFuaGCxw3wDNmw1L-1">
          <mxGeometry x="460" y="30" width="73" height="150" as="geometry" />
        </mxCell>
        <mxCell id="fPFpeFuaGCxw3wDNmw1L-4" value="" style="strokeColor=#666666;html=1;verticalLabelPosition=bottom;labelBackgroundColor=#ffffff;verticalAlign=top;outlineConnect=0;shadow=0;dashed=0;shape=mxgraph.rack.general.server_2;fontFamily=Verdana;fontSource=https%3A%2F%2Ffonts.googleapis.com%2Fcss%3Ffamily%3DArchitects%2BDaughter;fontSize=13;fontColor=default;fillColor=#FFFFFF;gradientColor=#FFFFFF;gradientDirection=south;" vertex="1" parent="fPFpeFuaGCxw3wDNmw1L-1">
          <mxGeometry x="360" y="30" width="73" height="150" as="geometry" />
        </mxCell>
        <mxCell id="fPFpeFuaGCxw3wDNmw1L-5" value="" style="strokeColor=#666666;html=1;verticalLabelPosition=bottom;labelBackgroundColor=#ffffff;verticalAlign=top;outlineConnect=0;shadow=0;dashed=0;shape=mxgraph.rack.general.server_3;fontFamily=Verdana;fontSource=https%3A%2F%2Ffonts.googleapis.com%2Fcss%3Ffamily%3DArchitects%2BDaughter;fontSize=13;fontColor=default;fillColor=#FFFFFF;gradientColor=#FFFFFF;gradientDirection=south;" vertex="1" parent="fPFpeFuaGCxw3wDNmw1L-1">
          <mxGeometry x="270" y="30" width="73" height="150" as="geometry" />
        </mxCell>
        <mxCell id="fPFpeFuaGCxw3wDNmw1L-7" value="" style="strokeColor=#666666;html=1;labelPosition=right;align=left;spacingLeft=15;shadow=0;dashed=0;outlineConnect=0;shape=mxgraph.rack.dell.power_strip;fontFamily=Verdana;fontSource=https%3A%2F%2Ffonts.googleapis.com%2Fcss%3Ffamily%3DArchitects%2BDaughter;fontSize=13;fontColor=default;fillColor=#FFFFFF;gradientColor=#FFFFFF;gradientDirection=south;" vertex="1" parent="fPFpeFuaGCxw3wDNmw1L-1">
          <mxGeometry x="60" y="90" width="186" height="30" as="geometry" />
        </mxCell>
      </root>
    </mxGraphModel>
  </diagram>
</mxfile>
